<svg width="972" height="564" viewBox="0 0 972 564" fill="none" xmlns="http://www.w3.org/2000/svg">
<rect width="970" height="564" transform="translate(1)" fill="white"/>
<path d="M459.438 129.26C459.438 130.699 459.089 131.949 458.392 133.012C457.694 134.074 456.676 134.893 455.337 135.469C454.009 136.044 452.393 136.332 450.489 136.332C449.648 136.332 448.824 136.277 448.016 136.166C447.219 136.055 446.45 135.895 445.708 135.685C444.978 135.463 444.28 135.192 443.616 134.871V130.09C444.767 130.599 445.963 131.058 447.202 131.468C448.442 131.877 449.67 132.082 450.888 132.082C451.729 132.082 452.404 131.971 452.913 131.75C453.433 131.529 453.81 131.224 454.042 130.837C454.274 130.45 454.391 130.007 454.391 129.509C454.391 128.9 454.186 128.38 453.776 127.948C453.367 127.517 452.802 127.113 452.083 126.736C451.375 126.36 450.572 125.956 449.676 125.524C449.111 125.259 448.497 124.938 447.833 124.562C447.169 124.174 446.538 123.704 445.94 123.15C445.343 122.597 444.85 121.927 444.463 121.142C444.087 120.345 443.898 119.393 443.898 118.286C443.898 116.836 444.23 115.597 444.895 114.567C445.559 113.538 446.505 112.752 447.733 112.21C448.973 111.657 450.434 111.38 452.116 111.38C453.378 111.38 454.579 111.529 455.719 111.828C456.87 112.116 458.071 112.536 459.321 113.09L457.661 117.091C456.543 116.637 455.542 116.288 454.656 116.045C453.771 115.79 452.869 115.663 451.95 115.663C451.308 115.663 450.76 115.768 450.307 115.979C449.853 116.178 449.51 116.465 449.277 116.842C449.045 117.207 448.929 117.633 448.929 118.12C448.929 118.696 449.095 119.183 449.427 119.581C449.77 119.968 450.279 120.345 450.954 120.71C451.64 121.075 452.493 121.501 453.511 121.988C454.75 122.575 455.807 123.189 456.682 123.831C457.567 124.462 458.248 125.209 458.724 126.072C459.2 126.924 459.438 127.987 459.438 129.26ZM468.502 110.168V121.723C468.502 122.42 468.474 123.117 468.419 123.814C468.364 124.512 468.303 125.209 468.236 125.906H468.303C468.646 125.419 468.994 124.938 469.349 124.462C469.714 123.986 470.101 123.527 470.511 123.084L475.707 117.439H481.418L474.047 125.491L481.866 136H476.022L470.677 128.479L468.502 130.223V136H463.438V110.168H468.502ZM489.586 117.439V136H484.522V117.439H489.586ZM487.062 110.168C487.815 110.168 488.463 110.345 489.005 110.699C489.547 111.042 489.818 111.69 489.818 112.642C489.818 113.582 489.547 114.235 489.005 114.601C488.463 114.955 487.815 115.132 487.062 115.132C486.299 115.132 485.646 114.955 485.104 114.601C484.572 114.235 484.307 113.582 484.307 112.642C484.307 111.69 484.572 111.042 485.104 110.699C485.646 110.345 486.299 110.168 487.062 110.168ZM499.979 136H494.915V110.168H499.979V136ZM510.371 136H505.308V110.168H510.371V136ZM528.649 130.488C528.649 131.75 528.351 132.818 527.753 133.692C527.166 134.556 526.286 135.214 525.113 135.668C523.94 136.111 522.479 136.332 520.73 136.332C519.436 136.332 518.323 136.249 517.394 136.083C516.475 135.917 515.545 135.64 514.604 135.253V131.069C515.612 131.523 516.691 131.899 517.842 132.198C519.004 132.486 520.022 132.63 520.896 132.63C521.882 132.63 522.584 132.486 523.005 132.198C523.437 131.899 523.652 131.512 523.652 131.036C523.652 130.726 523.564 130.45 523.387 130.206C523.221 129.951 522.855 129.669 522.291 129.359C521.727 129.038 520.841 128.623 519.635 128.114C518.473 127.627 517.515 127.135 516.763 126.637C516.021 126.139 515.468 125.552 515.103 124.877C514.748 124.191 514.571 123.322 514.571 122.271C514.571 120.555 515.235 119.266 516.563 118.402C517.903 117.528 519.69 117.091 521.926 117.091C523.077 117.091 524.173 117.207 525.213 117.439C526.264 117.672 527.343 118.043 528.45 118.552L526.923 122.204C526.004 121.806 525.135 121.479 524.316 121.225C523.508 120.97 522.684 120.843 521.843 120.843C521.101 120.843 520.542 120.942 520.166 121.142C519.79 121.341 519.602 121.645 519.602 122.055C519.602 122.354 519.696 122.619 519.884 122.852C520.083 123.084 520.459 123.344 521.013 123.632C521.577 123.909 522.402 124.268 523.486 124.711C524.538 125.143 525.451 125.596 526.226 126.072C527 126.537 527.598 127.118 528.019 127.815C528.439 128.502 528.649 129.393 528.649 130.488Z" fill="#070707"/>
<path d="M375.223 179V166.15H376.717V179H375.223ZM392.546 178.982L390.832 173.375C390.756 173.135 390.683 172.9 390.612 172.672C390.548 172.438 390.486 172.215 390.428 172.004C390.375 171.787 390.325 171.588 390.278 171.406C390.237 171.219 390.202 171.058 390.173 170.923H390.111C390.088 171.058 390.056 171.219 390.015 171.406C389.974 171.588 389.924 171.787 389.865 172.004C389.812 172.221 389.754 172.449 389.689 172.689C389.625 172.924 389.552 173.161 389.47 173.401L387.677 178.982H386.033L383.379 169.35H384.891L386.279 174.667C386.373 175.019 386.461 175.367 386.543 175.713C386.631 176.053 386.704 176.375 386.763 176.68C386.827 176.979 386.874 177.239 386.903 177.462H386.974C387.009 177.315 387.047 177.14 387.088 176.935C387.135 176.729 387.185 176.513 387.237 176.284C387.296 176.05 387.357 175.818 387.422 175.59C387.486 175.355 387.551 175.136 387.615 174.931L389.391 169.35H390.964L392.678 174.922C392.766 175.203 392.851 175.496 392.933 175.801C393.021 176.105 393.1 176.401 393.17 176.688C393.24 176.97 393.29 177.222 393.319 177.444H393.39C393.413 177.245 393.457 176.999 393.521 176.706C393.586 176.413 393.659 176.091 393.741 175.739C393.829 175.388 393.92 175.03 394.014 174.667L395.42 169.35H396.905L394.242 178.982H392.546ZM406.969 174.166C406.969 174.957 406.866 175.663 406.661 176.284C406.456 176.905 406.16 177.43 405.773 177.857C405.387 178.285 404.918 178.613 404.367 178.842C403.822 179.064 403.204 179.176 402.513 179.176C401.868 179.176 401.276 179.064 400.737 178.842C400.204 178.613 399.741 178.285 399.349 177.857C398.962 177.43 398.66 176.905 398.443 176.284C398.232 175.663 398.127 174.957 398.127 174.166C398.127 173.111 398.306 172.215 398.663 171.477C399.021 170.732 399.53 170.167 400.192 169.78C400.86 169.388 401.654 169.191 402.574 169.191C403.453 169.191 404.221 169.388 404.877 169.78C405.539 170.173 406.052 170.741 406.415 171.485C406.784 172.224 406.969 173.117 406.969 174.166ZM399.639 174.166C399.639 174.939 399.741 175.61 399.946 176.179C400.151 176.747 400.468 177.187 400.896 177.497C401.323 177.808 401.874 177.963 402.548 177.963C403.216 177.963 403.764 177.808 404.191 177.497C404.625 177.187 404.944 176.747 405.149 176.179C405.354 175.61 405.457 174.939 405.457 174.166C405.457 173.398 405.354 172.736 405.149 172.18C404.944 171.617 404.628 171.184 404.2 170.879C403.772 170.574 403.219 170.422 402.539 170.422C401.537 170.422 400.802 170.753 400.333 171.415C399.87 172.077 399.639 172.994 399.639 174.166ZM413.868 169.191C414.062 169.191 414.264 169.203 414.475 169.227C414.686 169.244 414.873 169.271 415.037 169.306L414.853 170.659C414.694 170.618 414.519 170.586 414.325 170.562C414.132 170.539 413.95 170.527 413.78 170.527C413.394 170.527 413.027 170.606 412.682 170.765C412.342 170.917 412.043 171.14 411.785 171.433C411.527 171.72 411.325 172.068 411.179 172.479C411.032 172.883 410.959 173.334 410.959 173.832V179H409.491V169.367H410.704L410.862 171.143H410.924C411.123 170.785 411.363 170.46 411.645 170.167C411.926 169.868 412.251 169.631 412.62 169.455C412.995 169.279 413.411 169.191 413.868 169.191ZM418.307 165.324V172.426C418.307 172.66 418.298 172.947 418.28 173.287C418.263 173.621 418.248 173.917 418.236 174.175H418.298C418.421 174.022 418.6 173.797 418.834 173.498C419.074 173.199 419.276 172.959 419.44 172.777L422.64 169.367H424.354L420.478 173.48L424.635 179H422.877L419.476 174.438L418.307 175.511V179H416.856V165.324H418.307ZM432.448 169.367V179H430.989V169.367H432.448ZM431.736 165.764C431.977 165.764 432.182 165.843 432.352 166.001C432.527 166.153 432.615 166.394 432.615 166.722C432.615 167.044 432.527 167.284 432.352 167.442C432.182 167.601 431.977 167.68 431.736 167.68C431.484 167.68 431.273 167.601 431.104 167.442C430.939 167.284 430.857 167.044 430.857 166.722C430.857 166.394 430.939 166.153 431.104 166.001C431.273 165.843 431.484 165.764 431.736 165.764ZM440.104 169.191C441.246 169.191 442.11 169.473 442.696 170.035C443.282 170.592 443.575 171.488 443.575 172.725V179H442.134V172.821C442.134 172.019 441.949 171.418 441.58 171.02C441.217 170.621 440.657 170.422 439.901 170.422C438.835 170.422 438.085 170.724 437.651 171.327C437.218 171.931 437.001 172.807 437.001 173.955V179H435.542V169.367H436.72L436.939 170.756H437.019C437.224 170.416 437.484 170.132 437.801 169.903C438.117 169.669 438.472 169.493 438.864 169.376C439.257 169.253 439.67 169.191 440.104 169.191ZM457.488 176.363C457.488 176.979 457.333 177.497 457.022 177.919C456.718 178.335 456.278 178.648 455.704 178.859C455.136 179.07 454.456 179.176 453.665 179.176C452.991 179.176 452.408 179.123 451.916 179.018C451.424 178.912 450.993 178.763 450.624 178.569V177.225C451.017 177.418 451.485 177.594 452.03 177.752C452.575 177.91 453.132 177.989 453.7 177.989C454.532 177.989 455.136 177.854 455.511 177.585C455.886 177.315 456.073 176.949 456.073 176.486C456.073 176.223 455.997 175.991 455.845 175.792C455.698 175.587 455.449 175.391 455.098 175.203C454.746 175.01 454.26 174.799 453.639 174.57C453.023 174.336 452.49 174.104 452.039 173.876C451.594 173.642 451.248 173.357 451.002 173.023C450.762 172.689 450.642 172.256 450.642 171.723C450.642 170.908 450.97 170.284 451.626 169.851C452.288 169.411 453.155 169.191 454.228 169.191C454.808 169.191 455.35 169.25 455.854 169.367C456.363 169.479 456.838 169.631 457.277 169.824L456.785 170.993C456.387 170.823 455.962 170.68 455.511 170.562C455.06 170.445 454.6 170.387 454.131 170.387C453.457 170.387 452.938 170.498 452.575 170.721C452.218 170.943 452.039 171.248 452.039 171.635C452.039 171.934 452.121 172.18 452.285 172.373C452.455 172.566 452.725 172.748 453.094 172.918C453.463 173.088 453.949 173.287 454.553 173.516C455.156 173.738 455.678 173.97 456.117 174.21C456.557 174.444 456.894 174.731 457.128 175.071C457.368 175.405 457.488 175.836 457.488 176.363ZM467.789 169.367V179H466.594L466.383 177.646H466.304C466.104 177.98 465.847 178.262 465.53 178.49C465.214 178.719 464.856 178.889 464.458 179C464.065 179.117 463.646 179.176 463.201 179.176C462.439 179.176 461.801 179.053 461.285 178.807C460.77 178.561 460.38 178.18 460.116 177.664C459.858 177.148 459.729 176.486 459.729 175.678V169.367H461.206V175.572C461.206 176.375 461.388 176.976 461.751 177.374C462.114 177.767 462.668 177.963 463.412 177.963C464.127 177.963 464.695 177.828 465.117 177.559C465.545 177.289 465.853 176.894 466.04 176.372C466.228 175.845 466.321 175.2 466.321 174.438V169.367H467.789ZM474.732 179.176C473.865 179.176 473.101 178.997 472.438 178.64C471.776 178.282 471.261 177.737 470.892 177.005C470.522 176.272 470.338 175.35 470.338 174.236C470.338 173.07 470.531 172.118 470.918 171.38C471.311 170.636 471.85 170.085 472.535 169.728C473.221 169.37 474 169.191 474.873 169.191C475.354 169.191 475.816 169.241 476.262 169.341C476.713 169.435 477.082 169.555 477.369 169.701L476.93 170.923C476.637 170.806 476.297 170.7 475.91 170.606C475.529 170.513 475.172 170.466 474.838 170.466C474.17 170.466 473.613 170.609 473.168 170.896C472.729 171.184 472.397 171.605 472.175 172.162C471.958 172.719 471.85 173.404 471.85 174.219C471.85 174.998 471.955 175.663 472.166 176.214C472.383 176.765 472.702 177.187 473.124 177.479C473.552 177.767 474.085 177.91 474.724 177.91C475.233 177.91 475.693 177.857 476.104 177.752C476.514 177.641 476.886 177.512 477.22 177.365V178.666C476.897 178.83 476.537 178.956 476.139 179.044C475.746 179.132 475.277 179.176 474.732 179.176ZM480.964 165.324V169.411C480.964 169.646 480.958 169.883 480.946 170.123C480.935 170.357 480.914 170.574 480.885 170.773H480.981C481.181 170.434 481.433 170.149 481.737 169.921C482.048 169.687 482.399 169.511 482.792 169.394C483.185 169.271 483.601 169.209 484.04 169.209C484.813 169.209 485.458 169.332 485.974 169.578C486.495 169.824 486.885 170.205 487.143 170.721C487.406 171.236 487.538 171.904 487.538 172.725V179H486.097V172.821C486.097 172.019 485.912 171.418 485.543 171.02C485.18 170.621 484.62 170.422 483.864 170.422C483.149 170.422 482.578 170.56 482.15 170.835C481.729 171.104 481.424 171.503 481.236 172.03C481.055 172.558 480.964 173.202 480.964 173.964V179H479.505V165.324H480.964ZM499.746 169.191C500.947 169.191 501.905 169.604 502.62 170.431C503.335 171.257 503.692 172.499 503.692 174.157C503.692 175.253 503.528 176.173 503.2 176.917C502.872 177.661 502.409 178.224 501.812 178.604C501.22 178.985 500.52 179.176 499.711 179.176C499.201 179.176 498.753 179.108 498.366 178.974C497.979 178.839 497.648 178.657 497.373 178.429C497.098 178.2 496.869 177.951 496.688 177.682H496.582C496.6 177.91 496.62 178.186 496.644 178.508C496.673 178.83 496.688 179.111 496.688 179.352V183.307H495.22V169.367H496.424L496.617 170.791H496.688C496.875 170.498 497.104 170.231 497.373 169.991C497.643 169.745 497.971 169.552 498.357 169.411C498.75 169.265 499.213 169.191 499.746 169.191ZM499.491 170.422C498.823 170.422 498.284 170.551 497.874 170.809C497.47 171.066 497.174 171.453 496.986 171.969C496.799 172.479 496.699 173.12 496.688 173.894V174.175C496.688 174.989 496.775 175.678 496.951 176.24C497.133 176.803 497.429 177.23 497.839 177.523C498.255 177.816 498.812 177.963 499.509 177.963C500.106 177.963 500.604 177.802 501.003 177.479C501.401 177.157 501.697 176.709 501.891 176.135C502.09 175.555 502.189 174.89 502.189 174.14C502.189 173.003 501.967 172.101 501.521 171.433C501.082 170.759 500.405 170.422 499.491 170.422ZM510.618 169.191C510.812 169.191 511.014 169.203 511.225 169.227C511.436 169.244 511.623 169.271 511.787 169.306L511.603 170.659C511.444 170.618 511.269 170.586 511.075 170.562C510.882 170.539 510.7 170.527 510.53 170.527C510.144 170.527 509.777 170.606 509.432 170.765C509.092 170.917 508.793 171.14 508.535 171.433C508.277 171.72 508.075 172.068 507.929 172.479C507.782 172.883 507.709 173.334 507.709 173.832V179H506.241V169.367H507.454L507.612 171.143H507.674C507.873 170.785 508.113 170.46 508.395 170.167C508.676 169.868 509.001 169.631 509.37 169.455C509.745 169.279 510.161 169.191 510.618 169.191ZM521.912 174.166C521.912 174.957 521.81 175.663 521.604 176.284C521.399 176.905 521.104 177.43 520.717 177.857C520.33 178.285 519.861 178.613 519.311 178.842C518.766 179.064 518.147 179.176 517.456 179.176C516.812 179.176 516.22 179.064 515.681 178.842C515.147 178.613 514.685 178.285 514.292 177.857C513.905 177.43 513.604 176.905 513.387 176.284C513.176 175.663 513.07 174.957 513.07 174.166C513.07 173.111 513.249 172.215 513.606 171.477C513.964 170.732 514.474 170.167 515.136 169.78C515.804 169.388 516.598 169.191 517.518 169.191C518.396 169.191 519.164 169.388 519.82 169.78C520.482 170.173 520.995 170.741 521.358 171.485C521.728 172.224 521.912 173.117 521.912 174.166ZM514.582 174.166C514.582 174.939 514.685 175.61 514.89 176.179C515.095 176.747 515.411 177.187 515.839 177.497C516.267 177.808 516.817 177.963 517.491 177.963C518.159 177.963 518.707 177.808 519.135 177.497C519.568 177.187 519.888 176.747 520.093 176.179C520.298 175.61 520.4 174.939 520.4 174.166C520.4 173.398 520.298 172.736 520.093 172.18C519.888 171.617 519.571 171.184 519.144 170.879C518.716 170.574 518.162 170.422 517.482 170.422C516.48 170.422 515.745 170.753 515.276 171.415C514.813 172.077 514.582 172.994 514.582 174.166ZM527.124 183.324C525.858 183.324 524.883 183.087 524.197 182.612C523.512 182.144 523.169 181.484 523.169 180.635C523.169 180.031 523.359 179.516 523.74 179.088C524.127 178.66 524.66 178.376 525.34 178.235C525.088 178.118 524.871 177.942 524.689 177.708C524.514 177.474 524.426 177.204 524.426 176.899C524.426 176.548 524.522 176.24 524.716 175.977C524.915 175.707 525.217 175.449 525.621 175.203C525.117 174.998 524.707 174.652 524.391 174.166C524.08 173.674 523.925 173.103 523.925 172.452C523.925 171.761 524.068 171.172 524.355 170.686C524.643 170.193 525.059 169.818 525.604 169.561C526.148 169.303 526.808 169.174 527.581 169.174C527.751 169.174 527.921 169.183 528.091 169.2C528.267 169.212 528.434 169.232 528.592 169.262C528.75 169.285 528.888 169.314 529.005 169.35H532.31V170.29L530.534 170.51C530.71 170.738 530.856 171.014 530.974 171.336C531.091 171.658 531.149 172.016 531.149 172.408C531.149 173.369 530.824 174.134 530.174 174.702C529.523 175.265 528.63 175.546 527.493 175.546C527.224 175.546 526.948 175.522 526.667 175.476C526.38 175.634 526.16 175.81 526.008 176.003C525.861 176.196 525.788 176.419 525.788 176.671C525.788 176.858 525.844 177.008 525.955 177.119C526.072 177.23 526.239 177.312 526.456 177.365C526.673 177.412 526.934 177.436 527.238 177.436H528.935C529.983 177.436 530.786 177.655 531.343 178.095C531.905 178.534 532.187 179.176 532.187 180.02C532.187 181.086 531.753 181.903 530.886 182.472C530.019 183.04 528.765 183.324 527.124 183.324ZM527.168 182.182C527.965 182.182 528.624 182.1 529.146 181.936C529.673 181.777 530.065 181.546 530.323 181.241C530.587 180.942 530.719 180.585 530.719 180.169C530.719 179.782 530.631 179.489 530.455 179.29C530.279 179.097 530.021 178.968 529.682 178.903C529.342 178.833 528.926 178.798 528.434 178.798H526.764C526.33 178.798 525.952 178.865 525.63 179C525.308 179.135 525.059 179.334 524.883 179.598C524.713 179.861 524.628 180.189 524.628 180.582C524.628 181.104 524.848 181.499 525.287 181.769C525.727 182.044 526.354 182.182 527.168 182.182ZM527.546 174.482C528.243 174.482 528.768 174.307 529.119 173.955C529.471 173.604 529.646 173.091 529.646 172.417C529.646 171.696 529.468 171.157 529.11 170.8C528.753 170.437 528.226 170.255 527.528 170.255C526.86 170.255 526.345 170.442 525.981 170.817C525.624 171.187 525.445 171.729 525.445 172.443C525.445 173.1 525.627 173.604 525.99 173.955C526.354 174.307 526.872 174.482 527.546 174.482ZM538.585 169.191C538.778 169.191 538.98 169.203 539.191 169.227C539.402 169.244 539.59 169.271 539.754 169.306L539.569 170.659C539.411 170.618 539.235 170.586 539.042 170.562C538.849 170.539 538.667 170.527 538.497 170.527C538.11 170.527 537.744 170.606 537.398 170.765C537.059 170.917 536.76 171.14 536.502 171.433C536.244 171.72 536.042 172.068 535.896 172.479C535.749 172.883 535.676 173.334 535.676 173.832V179H534.208V169.367H535.421L535.579 171.143H535.641C535.84 170.785 536.08 170.46 536.361 170.167C536.643 169.868 536.968 169.631 537.337 169.455C537.712 169.279 538.128 169.191 538.585 169.191ZM545.177 169.209C546.325 169.209 547.178 169.467 547.734 169.982C548.291 170.498 548.569 171.321 548.569 172.452V179H547.506L547.225 177.576H547.154C546.885 177.928 546.604 178.224 546.311 178.464C546.018 178.698 545.678 178.877 545.291 179C544.91 179.117 544.441 179.176 543.885 179.176C543.299 179.176 542.777 179.073 542.32 178.868C541.869 178.663 541.512 178.353 541.248 177.937C540.99 177.521 540.861 176.993 540.861 176.354C540.861 175.394 541.242 174.655 542.004 174.14C542.766 173.624 543.926 173.343 545.484 173.296L547.146 173.226V172.637C547.146 171.805 546.967 171.222 546.609 170.888C546.252 170.554 545.748 170.387 545.098 170.387C544.594 170.387 544.113 170.46 543.656 170.606C543.199 170.753 542.766 170.926 542.355 171.125L541.907 170.018C542.341 169.795 542.839 169.604 543.401 169.446C543.964 169.288 544.556 169.209 545.177 169.209ZM547.128 174.254L545.66 174.315C544.459 174.362 543.612 174.559 543.12 174.904C542.628 175.25 542.382 175.739 542.382 176.372C542.382 176.923 542.549 177.33 542.883 177.594C543.217 177.857 543.659 177.989 544.21 177.989C545.065 177.989 545.766 177.752 546.311 177.277C546.855 176.803 547.128 176.091 547.128 175.142V174.254ZM562.034 169.191C563.095 169.191 563.895 169.47 564.434 170.026C564.973 170.577 565.242 171.465 565.242 172.689V179H563.801V172.76C563.801 171.98 563.631 171.397 563.291 171.011C562.957 170.618 562.459 170.422 561.797 170.422C560.865 170.422 560.188 170.691 559.767 171.23C559.345 171.77 559.134 172.563 559.134 173.612V179H557.684V172.76C557.684 172.238 557.607 171.805 557.455 171.459C557.309 171.113 557.086 170.855 556.787 170.686C556.494 170.51 556.122 170.422 555.671 170.422C555.032 170.422 554.52 170.554 554.133 170.817C553.746 171.081 553.465 171.474 553.289 171.995C553.119 172.511 553.034 173.146 553.034 173.902V179H551.575V169.367H552.753L552.973 170.729H553.052C553.245 170.396 553.488 170.114 553.781 169.886C554.074 169.657 554.402 169.484 554.766 169.367C555.129 169.25 555.516 169.191 555.926 169.191C556.658 169.191 557.271 169.329 557.763 169.604C558.261 169.874 558.621 170.287 558.844 170.844H558.923C559.239 170.287 559.673 169.874 560.224 169.604C560.774 169.329 561.378 169.191 562.034 169.191ZM574.471 176.363C574.471 176.979 574.315 177.497 574.005 177.919C573.7 178.335 573.261 178.648 572.687 178.859C572.118 179.07 571.438 179.176 570.647 179.176C569.974 179.176 569.391 179.123 568.898 179.018C568.406 178.912 567.976 178.763 567.606 178.569V177.225C567.999 177.418 568.468 177.594 569.013 177.752C569.558 177.91 570.114 177.989 570.683 177.989C571.515 177.989 572.118 177.854 572.493 177.585C572.868 177.315 573.056 176.949 573.056 176.486C573.056 176.223 572.979 175.991 572.827 175.792C572.681 175.587 572.432 175.391 572.08 175.203C571.729 175.01 571.242 174.799 570.621 174.57C570.006 174.336 569.473 174.104 569.021 173.876C568.576 173.642 568.23 173.357 567.984 173.023C567.744 172.689 567.624 172.256 567.624 171.723C567.624 170.908 567.952 170.284 568.608 169.851C569.271 169.411 570.138 169.191 571.21 169.191C571.79 169.191 572.332 169.25 572.836 169.367C573.346 169.479 573.82 169.631 574.26 169.824L573.768 170.993C573.369 170.823 572.944 170.68 572.493 170.562C572.042 170.445 571.582 170.387 571.113 170.387C570.439 170.387 569.921 170.498 569.558 170.721C569.2 170.943 569.021 171.248 569.021 171.635C569.021 171.934 569.104 172.18 569.268 172.373C569.438 172.566 569.707 172.748 570.076 172.918C570.445 173.088 570.932 173.287 571.535 173.516C572.139 173.738 572.66 173.97 573.1 174.21C573.539 174.444 573.876 174.731 574.11 175.071C574.351 175.405 574.471 175.836 574.471 176.363ZM585.097 169.209C586.245 169.209 587.098 169.467 587.654 169.982C588.211 170.498 588.489 171.321 588.489 172.452V179H587.426L587.145 177.576H587.074C586.805 177.928 586.523 178.224 586.23 178.464C585.938 178.698 585.598 178.877 585.211 179C584.83 179.117 584.361 179.176 583.805 179.176C583.219 179.176 582.697 179.073 582.24 178.868C581.789 178.663 581.432 178.353 581.168 177.937C580.91 177.521 580.781 176.993 580.781 176.354C580.781 175.394 581.162 174.655 581.924 174.14C582.686 173.624 583.846 173.343 585.404 173.296L587.065 173.226V172.637C587.065 171.805 586.887 171.222 586.529 170.888C586.172 170.554 585.668 170.387 585.018 170.387C584.514 170.387 584.033 170.46 583.576 170.606C583.119 170.753 582.686 170.926 582.275 171.125L581.827 170.018C582.261 169.795 582.759 169.604 583.321 169.446C583.884 169.288 584.476 169.209 585.097 169.209ZM587.048 174.254L585.58 174.315C584.379 174.362 583.532 174.559 583.04 174.904C582.548 175.25 582.302 175.739 582.302 176.372C582.302 176.923 582.469 177.33 582.803 177.594C583.137 177.857 583.579 177.989 584.13 177.989C584.985 177.989 585.686 177.752 586.23 177.277C586.775 176.803 587.048 176.091 587.048 175.142V174.254ZM597.727 176.363C597.727 176.979 597.571 177.497 597.261 177.919C596.956 178.335 596.517 178.648 595.942 178.859C595.374 179.07 594.694 179.176 593.903 179.176C593.229 179.176 592.646 179.123 592.154 179.018C591.662 178.912 591.231 178.763 590.862 178.569V177.225C591.255 177.418 591.724 177.594 592.269 177.752C592.813 177.91 593.37 177.989 593.938 177.989C594.771 177.989 595.374 177.854 595.749 177.585C596.124 177.315 596.312 176.949 596.312 176.486C596.312 176.223 596.235 175.991 596.083 175.792C595.937 175.587 595.688 175.391 595.336 175.203C594.984 175.01 594.498 174.799 593.877 174.57C593.262 174.336 592.729 174.104 592.277 173.876C591.832 173.642 591.486 173.357 591.24 173.023C591 172.689 590.88 172.256 590.88 171.723C590.88 170.908 591.208 170.284 591.864 169.851C592.526 169.411 593.394 169.191 594.466 169.191C595.046 169.191 595.588 169.25 596.092 169.367C596.602 169.479 597.076 169.631 597.516 169.824L597.023 170.993C596.625 170.823 596.2 170.68 595.749 170.562C595.298 170.445 594.838 170.387 594.369 170.387C593.695 170.387 593.177 170.498 592.813 170.721C592.456 170.943 592.277 171.248 592.277 171.635C592.277 171.934 592.359 172.18 592.523 172.373C592.693 172.566 592.963 172.748 593.332 172.918C593.701 173.088 594.188 173.287 594.791 173.516C595.395 173.738 595.916 173.97 596.355 174.21C596.795 174.444 597.132 174.731 597.366 175.071C597.606 175.405 597.727 175.836 597.727 176.363Z" fill="#070707"/>
<path d="M125.5 234H45.5V314H125.5V234Z" fill="#87BCF6"/>
<path d="M118.796 240.704H52.2047V307.295H118.796V240.704Z" fill="#252653"/>
<path fill-rule="evenodd" clip-rule="evenodd" d="M104.812 265.452C98.8885 262.446 88.6895 263.902 88.6895 271.745C88.6895 277.586 92.706 279.885 97.6168 281.815C104.595 284.556 97.8133 289.736 89.2943 284.379C89.2943 284.379 88.9893 284.228 88.8394 284.379C88.6895 284.53 88.6895 284.681 88.6895 284.837C88.6895 284.988 88.6895 290.465 88.6895 290.465C91.667 291.999 93.8898 292.779 97.3274 292.743C108.415 292.628 110.013 281.945 104.115 277.836C103.045 277.087 100.181 275.594 99.2762 275.246C94.5876 273.446 94.9857 270.887 96.4744 269.597C98.1183 268.167 102.678 270.331 104.595 271.537C105.758 272.26 105.95 271.36 105.945 270.57L105.929 266.83C105.929 265.941 105.624 265.868 104.812 265.452ZM70.5711 274.793V261.093C70.5711 261.026 70.8089 260.792 70.8709 260.792C76.6398 260.495 79.9223 261.629 80.217 267.829C80.553 274.944 74.6238 275.095 70.5711 275.095V274.793ZM63.6132 255.767V292.597H70.5711V280.728C79.1211 281.342 86.8337 278.257 86.8337 268.313C86.8337 264.302 85.5931 260.266 82.6517 257.827C78.5421 254.415 68.9376 255.174 63.6132 255.767Z" fill="#87BCF6"/>
<path d="M70.1539 354L69.4293 351.621H65.7857L65.0611 354H62.7779L66.3052 343.965H68.8961L72.4371 354H70.1539ZM68.9234 349.844L68.1988 347.52C68.1532 347.365 68.0917 347.166 68.0142 346.925C67.9413 346.679 67.8661 346.43 67.7886 346.18C67.7157 345.924 67.6565 345.703 67.6109 345.517C67.5653 345.703 67.5015 345.936 67.4195 346.214C67.342 346.487 67.2668 346.747 67.1939 346.993C67.121 347.239 67.0686 347.415 67.0367 347.52L66.3189 349.844H68.9234ZM76.2376 354.137C75.3854 354.137 74.6904 353.804 74.1526 353.139C73.6194 352.469 73.3528 351.487 73.3528 350.192C73.3528 348.884 73.624 347.896 74.1663 347.226C74.7086 346.551 75.4173 346.214 76.2923 346.214C76.6569 346.214 76.9781 346.264 77.2561 346.364C77.5341 346.465 77.7734 346.599 77.9739 346.768C78.179 346.936 78.3522 347.125 78.4934 347.335H78.5618C78.5345 347.189 78.5003 346.975 78.4593 346.692C78.4228 346.405 78.4046 346.111 78.4046 345.811V343.363H80.4964V354H78.8968L78.4934 353.009H78.4046C78.2724 353.218 78.1061 353.41 77.9055 353.583C77.7096 353.752 77.4749 353.886 77.2014 353.986C76.928 354.087 76.6067 354.137 76.2376 354.137ZM76.969 352.476C77.5387 352.476 77.9397 352.307 78.1721 351.97C78.4091 351.628 78.5345 351.115 78.5481 350.432V350.206C78.5481 349.463 78.4342 348.896 78.2063 348.504C77.9785 348.107 77.5546 347.909 76.9348 347.909C76.4746 347.909 76.1145 348.107 75.8548 348.504C75.595 348.9 75.4651 349.472 75.4651 350.22C75.4651 350.967 75.595 351.53 75.8548 351.908C76.1191 352.286 76.4905 352.476 76.969 352.476ZM89.9023 350.165C89.9023 350.803 89.8158 351.368 89.6426 351.86C89.474 352.353 89.2256 352.77 88.8975 353.111C88.5739 353.449 88.182 353.704 87.7217 353.877C87.266 354.05 86.751 354.137 86.1768 354.137C85.639 354.137 85.1445 354.05 84.6934 353.877C84.2467 353.704 83.8571 353.449 83.5244 353.111C83.1963 352.77 82.9411 352.353 82.7588 351.86C82.5811 351.368 82.4922 350.803 82.4922 350.165C82.4922 349.317 82.6426 348.6 82.9434 348.012C83.2441 347.424 83.6725 346.977 84.2285 346.672C84.7845 346.367 85.4476 346.214 86.2178 346.214C86.9333 346.214 87.5667 346.367 88.1182 346.672C88.6742 346.977 89.1094 347.424 89.4238 348.012C89.7428 348.6 89.9023 349.317 89.9023 350.165ZM84.6182 350.165C84.6182 350.666 84.6729 351.088 84.7822 351.43C84.8916 351.771 85.0625 352.029 85.2949 352.202C85.5273 352.375 85.8304 352.462 86.2041 352.462C86.5732 352.462 86.8717 352.375 87.0996 352.202C87.332 352.029 87.5007 351.771 87.6055 351.43C87.7148 351.088 87.7695 350.666 87.7695 350.165C87.7695 349.659 87.7148 349.24 87.6055 348.907C87.5007 348.57 87.332 348.317 87.0996 348.148C86.8672 347.98 86.5641 347.896 86.1904 347.896C85.639 347.896 85.238 348.085 84.9873 348.463C84.7412 348.841 84.6182 349.409 84.6182 350.165ZM93.99 343.363V345.838C93.99 346.125 93.9808 346.41 93.9626 346.692C93.9489 346.975 93.9307 347.194 93.9079 347.349H93.99C94.1905 347.034 94.4639 346.768 94.8103 346.549C95.1566 346.326 95.6055 346.214 96.157 346.214C97.0137 346.214 97.7087 346.549 98.2419 347.219C98.7751 347.889 99.0417 348.871 99.0417 350.165C99.0417 351.035 98.9187 351.767 98.6726 352.359C98.4265 352.947 98.0824 353.392 97.6404 353.692C97.1983 353.989 96.6856 354.137 96.1023 354.137C95.5417 354.137 95.0997 354.036 94.7761 353.836C94.4525 353.635 94.1905 353.41 93.99 353.159H93.8464L93.4978 354H91.905V343.363H93.99ZM95.487 347.882C95.1224 347.882 94.8331 347.957 94.6189 348.107C94.4047 348.258 94.2474 348.483 94.1472 348.784C94.0515 349.085 93.9991 349.465 93.99 349.926V350.151C93.99 350.894 94.0993 351.464 94.3181 351.86C94.5368 352.252 94.9356 352.448 95.5144 352.448C95.9428 352.448 96.2823 352.25 96.5329 351.854C96.7881 351.457 96.9157 350.885 96.9157 350.138C96.9157 349.39 96.7881 348.827 96.5329 348.449C96.2777 348.071 95.9291 347.882 95.487 347.882ZM104.196 346.214C104.902 346.214 105.511 346.351 106.021 346.624C106.531 346.893 106.926 347.285 107.204 347.8C107.482 348.315 107.621 348.944 107.621 349.687V350.698H102.692C102.715 351.286 102.89 351.749 103.218 352.086C103.551 352.419 104.011 352.585 104.599 352.585C105.087 352.585 105.533 352.535 105.939 352.435C106.345 352.334 106.761 352.184 107.19 351.983V353.597C106.812 353.784 106.415 353.92 106 354.007C105.59 354.093 105.091 354.137 104.503 354.137C103.738 354.137 103.059 353.995 102.466 353.713C101.878 353.43 101.416 353 101.079 352.421C100.746 351.842 100.58 351.113 100.58 350.233C100.58 349.34 100.73 348.597 101.031 348.005C101.336 347.408 101.76 346.961 102.302 346.665C102.845 346.364 103.476 346.214 104.196 346.214ZM104.209 347.697C103.804 347.697 103.467 347.827 103.198 348.087C102.933 348.347 102.781 348.755 102.74 349.311H105.665C105.661 349.001 105.604 348.725 105.495 348.483C105.39 348.242 105.23 348.05 105.016 347.909C104.806 347.768 104.538 347.697 104.209 347.697ZM51.2804 363.006C52.5701 363.006 53.5112 363.284 54.1036 363.84C54.6961 364.391 54.9923 365.152 54.9923 366.123C54.9923 366.561 54.9262 366.98 54.7941 367.381C54.6619 367.777 54.4454 368.131 54.1446 368.44C53.8484 368.75 53.4519 368.996 52.9552 369.179C52.4585 369.356 51.8455 369.445 51.1163 369.445H50.2071V373H48.088V363.006H51.2804ZM51.171 364.742H50.2071V367.709H50.9044C51.3009 367.709 51.645 367.657 51.9366 367.552C52.2283 367.447 52.4539 367.283 52.6134 367.06C52.7729 366.836 52.8527 366.549 52.8527 366.198C52.8527 365.706 52.7159 365.341 52.4425 365.104C52.1691 364.863 51.7452 364.742 51.171 364.742ZM59.0799 362.363V364.53C59.0799 364.909 59.0663 365.269 59.0389 365.61C59.0161 365.952 58.9979 366.194 58.9842 366.335H59.0936C59.2577 366.071 59.4513 365.856 59.6746 365.692C59.9025 365.528 60.1532 365.408 60.4266 365.33C60.7 365.253 60.994 365.214 61.3084 365.214C61.8599 365.214 62.3407 365.312 62.7508 365.508C63.161 365.699 63.48 366.002 63.7079 366.417C63.9357 366.827 64.0496 367.36 64.0496 368.017V373H61.9647V368.536C61.9647 367.989 61.8644 367.577 61.6639 367.299C61.4634 367.021 61.1535 366.882 60.7342 366.882C60.3149 366.882 59.9845 366.98 59.743 367.176C59.5015 367.367 59.3306 367.652 59.2303 368.03C59.1301 368.404 59.0799 368.862 59.0799 369.404V373H56.995V362.363H59.0799ZM73.4214 369.165C73.4214 369.803 73.3349 370.368 73.1617 370.86C72.9931 371.353 72.7447 371.77 72.4166 372.111C72.093 372.449 71.7011 372.704 71.2408 372.877C70.7851 373.05 70.2701 373.137 69.6959 373.137C69.1581 373.137 68.6636 373.05 68.2125 372.877C67.7658 372.704 67.3762 372.449 67.0435 372.111C66.7154 371.77 66.4602 371.353 66.2779 370.86C66.1002 370.368 66.0113 369.803 66.0113 369.165C66.0113 368.317 66.1617 367.6 66.4625 367.012C66.7632 366.424 67.1916 365.977 67.7476 365.672C68.3036 365.367 68.9667 365.214 69.7369 365.214C70.4524 365.214 71.0858 365.367 71.6373 365.672C72.1933 365.977 72.6285 366.424 72.9429 367.012C73.2619 367.6 73.4214 368.317 73.4214 369.165ZM68.1373 369.165C68.1373 369.666 68.192 370.088 68.3013 370.43C68.4107 370.771 68.5816 371.029 68.814 371.202C69.0464 371.375 69.3495 371.462 69.7232 371.462C70.0923 371.462 70.3908 371.375 70.6187 371.202C70.8511 371.029 71.0198 370.771 71.1246 370.43C71.2339 370.088 71.2886 369.666 71.2886 369.165C71.2886 368.659 71.2339 368.24 71.1246 367.907C71.0198 367.57 70.8511 367.317 70.6187 367.148C70.3863 366.98 70.0832 366.896 69.7095 366.896C69.1581 366.896 68.7571 367.085 68.5064 367.463C68.2603 367.841 68.1373 368.409 68.1373 369.165ZM78.6438 371.476C78.8717 371.476 79.0927 371.453 79.3069 371.407C79.5257 371.362 79.7421 371.305 79.9563 371.236V372.788C79.733 372.888 79.455 372.97 79.1223 373.034C78.7942 373.103 78.4342 373.137 78.0423 373.137C77.5865 373.137 77.1764 373.064 76.8118 372.918C76.4518 372.768 76.1669 372.51 75.9573 372.146C75.7522 371.776 75.6497 371.264 75.6497 370.607V366.923H74.6516V366.041L75.8001 365.344L76.4016 363.73H77.7346V365.357H79.8743V366.923H77.7346V370.607C77.7346 370.899 77.8167 371.118 77.9807 371.264C78.1494 371.405 78.3704 371.476 78.6438 371.476ZM88.7334 369.165C88.7334 369.803 88.6468 370.368 88.4736 370.86C88.305 371.353 88.0566 371.77 87.7285 372.111C87.4049 372.449 87.013 372.704 86.5527 372.877C86.097 373.05 85.582 373.137 85.0078 373.137C84.4701 373.137 83.9756 373.05 83.5244 372.877C83.0778 372.704 82.6882 372.449 82.3555 372.111C82.0273 371.77 81.7721 371.353 81.5898 370.86C81.4121 370.368 81.3232 369.803 81.3232 369.165C81.3232 368.317 81.4736 367.6 81.7744 367.012C82.0752 366.424 82.5036 365.977 83.0596 365.672C83.6156 365.367 84.2786 365.214 85.0488 365.214C85.7643 365.214 86.3978 365.367 86.9492 365.672C87.5052 365.977 87.9404 366.424 88.2549 367.012C88.5739 367.6 88.7334 368.317 88.7334 369.165ZM83.4492 369.165C83.4492 369.666 83.5039 370.088 83.6133 370.43C83.7227 370.771 83.8936 371.029 84.126 371.202C84.3584 371.375 84.6615 371.462 85.0352 371.462C85.4043 371.462 85.7028 371.375 85.9307 371.202C86.1631 371.029 86.3317 370.771 86.4365 370.43C86.5459 370.088 86.6006 369.666 86.6006 369.165C86.6006 368.659 86.5459 368.24 86.4365 367.907C86.3317 367.57 86.1631 367.317 85.9307 367.148C85.6982 366.98 85.3952 366.896 85.0215 366.896C84.4701 366.896 84.069 367.085 83.8184 367.463C83.5723 367.841 83.4492 368.409 83.4492 369.165ZM96.0681 370.73C96.0681 371.25 95.945 371.69 95.6989 372.05C95.4574 372.405 95.0951 372.676 94.612 372.863C94.129 373.046 93.5274 373.137 92.8073 373.137C92.2741 373.137 91.8161 373.103 91.4333 373.034C91.0551 372.966 90.6723 372.852 90.2849 372.692V370.97C90.6996 371.157 91.1439 371.312 91.6179 371.435C92.0964 371.553 92.5157 371.612 92.8757 371.612C93.2813 371.612 93.5707 371.553 93.7439 371.435C93.9216 371.312 94.0105 371.152 94.0105 370.956C94.0105 370.828 93.974 370.715 93.9011 370.614C93.8327 370.509 93.6823 370.393 93.4499 370.266C93.2175 370.133 92.8529 369.963 92.3562 369.753C91.8777 369.552 91.4835 369.35 91.1736 369.145C90.8682 368.939 90.6404 368.698 90.49 368.42C90.3441 368.137 90.2712 367.78 90.2712 367.347C90.2712 366.64 90.5447 366.109 91.0915 365.754C91.643 365.394 92.379 365.214 93.2995 365.214C93.7735 365.214 94.2247 365.262 94.653 365.357C95.086 365.453 95.5303 365.606 95.9861 365.815L95.3572 367.319C94.9789 367.155 94.6211 367.021 94.2839 366.916C93.9512 366.811 93.6117 366.759 93.2654 366.759C92.96 366.759 92.7299 366.8 92.5749 366.882C92.42 366.964 92.3425 367.089 92.3425 367.258C92.3425 367.381 92.3812 367.49 92.4587 367.586C92.5407 367.682 92.6957 367.789 92.9236 367.907C93.156 368.021 93.4955 368.169 93.9421 368.352C94.3751 368.529 94.751 368.716 95.07 368.912C95.3891 369.104 95.6351 369.343 95.8083 369.63C95.9815 369.912 96.0681 370.279 96.0681 370.73ZM100.06 362.363V364.53C100.06 364.909 100.046 365.269 100.019 365.61C99.9962 365.952 99.978 366.194 99.9643 366.335H100.074C100.238 366.071 100.431 365.856 100.655 365.692C100.883 365.528 101.133 365.408 101.407 365.33C101.68 365.253 101.974 365.214 102.289 365.214C102.84 365.214 103.321 365.312 103.731 365.508C104.141 365.699 104.46 366.002 104.688 366.417C104.916 366.827 105.03 367.36 105.03 368.017V373H102.945V368.536C102.945 367.989 102.845 367.577 102.644 367.299C102.443 367.021 102.134 366.882 101.714 366.882C101.295 366.882 100.965 366.98 100.723 367.176C100.482 367.367 100.311 367.652 100.21 368.03C100.11 368.404 100.06 368.862 100.06 369.404V373H97.975V362.363H100.06ZM114.402 369.165C114.402 369.803 114.315 370.368 114.142 370.86C113.973 371.353 113.725 371.77 113.397 372.111C113.073 372.449 112.681 372.704 112.221 372.877C111.765 373.05 111.25 373.137 110.676 373.137C110.138 373.137 109.644 373.05 109.193 372.877C108.746 372.704 108.356 372.449 108.024 372.111C107.695 371.77 107.44 371.353 107.258 370.86C107.08 370.368 106.991 369.803 106.991 369.165C106.991 368.317 107.142 367.6 107.443 367.012C107.743 366.424 108.172 365.977 108.728 365.672C109.284 365.367 109.947 365.214 110.717 365.214C111.432 365.214 112.066 365.367 112.617 365.672C113.173 365.977 113.609 366.424 113.923 367.012C114.242 367.6 114.402 368.317 114.402 369.165ZM109.117 369.165C109.117 369.666 109.172 370.088 109.281 370.43C109.391 370.771 109.562 371.029 109.794 371.202C110.027 371.375 110.33 371.462 110.703 371.462C111.072 371.462 111.371 371.375 111.599 371.202C111.831 371.029 112 370.771 112.105 370.43C112.214 370.088 112.269 369.666 112.269 369.165C112.269 368.659 112.214 368.24 112.105 367.907C112 367.57 111.831 367.317 111.599 367.148C111.366 366.98 111.063 366.896 110.69 366.896C110.138 366.896 109.737 367.085 109.486 367.463C109.24 367.841 109.117 368.409 109.117 369.165ZM120.656 365.214C121.517 365.214 122.212 365.549 122.741 366.219C123.274 366.889 123.541 367.871 123.541 369.165C123.541 370.031 123.416 370.76 123.165 371.353C122.914 371.94 122.568 372.385 122.126 372.686C121.684 372.986 121.176 373.137 120.601 373.137C120.232 373.137 119.916 373.091 119.651 373C119.387 372.904 119.161 372.784 118.974 372.638C118.788 372.487 118.626 372.328 118.489 372.159H118.38C118.416 372.341 118.444 372.528 118.462 372.72C118.48 372.911 118.489 373.098 118.489 373.28V376.363H116.404V365.357H118.099L118.393 366.349H118.489C118.626 366.144 118.792 365.954 118.988 365.781C119.184 365.608 119.419 365.471 119.692 365.371C119.97 365.266 120.292 365.214 120.656 365.214ZM119.986 366.882C119.622 366.882 119.332 366.957 119.118 367.107C118.904 367.258 118.747 367.483 118.646 367.784C118.551 368.085 118.498 368.465 118.489 368.926V369.151C118.489 369.644 118.535 370.061 118.626 370.402C118.722 370.744 118.879 371.004 119.098 371.182C119.321 371.359 119.626 371.448 120.014 371.448C120.333 371.448 120.595 371.359 120.8 371.182C121.005 371.004 121.157 370.744 121.258 370.402C121.363 370.056 121.415 369.634 121.415 369.138C121.415 368.39 121.299 367.827 121.066 367.449C120.834 367.071 120.474 366.882 119.986 366.882Z" fill="#828282"/>
<path d="M7.41471 462.621C6.78429 463.112 6.14017 463.126 5.48235 462.662C4.82453 462.198 4.60525 461.584 4.82452 460.82L7.16802 453.249L1.20649 449.033C0.54867 448.569 0.350226 447.955 0.611163 447.191C0.871003 446.427 1.39836 446.045 2.19323 446.045H9.55263L11.9372 438.187C12.0743 437.805 12.287 437.511 12.5753 437.306C12.8626 437.102 13.1707 437 13.4996 437C13.8285 437 14.1366 437.102 14.4238 437.306C14.7122 437.511 14.9249 437.805 15.0619 438.187L17.4465 446.045H24.8059C25.6008 446.045 26.1287 446.427 26.3896 447.191C26.6495 447.955 26.4505 448.569 25.7927 449.033L19.8311 453.249L22.1746 460.82C22.3939 461.584 22.1746 462.198 21.5168 462.662C20.859 463.126 20.2149 463.112 19.5844 462.621L13.4996 457.996L7.41471 462.621Z" fill="#070707"/>
<path d="M43.4147 462.621C42.7843 463.112 42.1402 463.126 41.4823 462.662C40.8245 462.198 40.6053 461.584 40.8245 460.82L43.168 453.249L37.2065 449.033C36.5487 448.569 36.3502 447.955 36.6112 447.191C36.871 446.427 37.3984 446.045 38.1932 446.045H45.5526L47.9372 438.187C48.0743 437.805 48.287 437.511 48.5753 437.306C48.8626 437.102 49.1707 437 49.4996 437C49.8285 437 50.1366 437.102 50.4238 437.306C50.7122 437.511 50.9249 437.805 51.0619 438.187L53.4465 446.045H60.8059C61.6008 446.045 62.1287 446.427 62.3896 447.191C62.6495 447.955 62.4505 448.569 61.7927 449.033L55.8311 453.249L58.1746 460.82C58.3939 461.584 58.1746 462.198 57.5168 462.662C56.859 463.126 56.2149 463.112 55.5844 462.621L49.4996 457.996L43.4147 462.621Z" fill="#070707"/>
<path d="M79.4147 462.621C78.7843 463.112 78.1402 463.126 77.4823 462.662C76.8245 462.198 76.6053 461.584 76.8245 460.82L79.168 453.249L73.2065 449.033C72.5487 448.569 72.3502 447.955 72.6112 447.191C72.871 446.427 73.3984 446.045 74.1932 446.045H81.5526L83.9372 438.187C84.0743 437.805 84.287 437.511 84.5753 437.306C84.8626 437.102 85.1707 437 85.4996 437C85.8285 437 86.1366 437.102 86.4238 437.306C86.7122 437.511 86.9249 437.805 87.0619 438.187L89.4465 446.045H96.8059C97.6008 446.045 98.1287 446.427 98.3896 447.191C98.6495 447.955 98.4505 448.569 97.7927 449.033L91.8311 453.249L94.1746 460.82C94.3939 461.584 94.1746 462.198 93.5168 462.662C92.859 463.126 92.2149 463.112 91.5844 462.621L85.4996 457.996L79.4147 462.621Z" fill="#E5E5E5"/>
<path d="M115.415 462.621C114.784 463.112 114.14 463.126 113.482 462.662C112.825 462.198 112.605 461.584 112.825 460.82L115.168 453.249L109.206 449.033C108.549 448.569 108.35 447.955 108.611 447.191C108.871 446.427 109.398 446.045 110.193 446.045H117.553L119.937 438.187C120.074 437.805 120.287 437.511 120.575 437.306C120.863 437.102 121.171 437 121.5 437C121.828 437 122.137 437.102 122.424 437.306C122.712 437.511 122.925 437.805 123.062 438.187L125.447 446.045H132.806C133.601 446.045 134.129 446.427 134.39 447.191C134.649 447.955 134.45 448.569 133.793 449.033L127.831 453.249L130.175 460.82C130.394 461.584 130.175 462.198 129.517 462.662C128.859 463.126 128.215 463.112 127.584 462.621L121.5 457.996L115.415 462.621Z" fill="#E5E5E5"/>
<path d="M151.415 462.621C150.784 463.112 150.14 463.126 149.482 462.662C148.825 462.198 148.605 461.584 148.825 460.82L151.168 453.249L145.206 449.033C144.549 448.569 144.35 447.955 144.611 447.191C144.871 446.427 145.398 446.045 146.193 446.045H153.553L155.937 438.187C156.074 437.805 156.287 437.511 156.575 437.306C156.863 437.102 157.171 437 157.5 437C157.828 437 158.137 437.102 158.424 437.306C158.712 437.511 158.925 437.805 159.062 438.187L161.447 446.045H168.806C169.601 446.045 170.129 446.427 170.39 447.191C170.649 447.955 170.45 448.569 169.793 449.033L163.831 453.249L166.175 460.82C166.394 461.584 166.175 462.198 165.517 462.662C164.859 463.126 164.215 463.112 163.584 462.621L157.5 457.996L151.415 462.621Z" fill="#E5E5E5"/>
<path d="M392.5 234H312.5V314H392.5V234Z" fill="#FF7C00"/>
<path d="M385.796 240.704H319.205V307.295H385.796V240.704Z" fill="#261300"/>
<path d="M372.459 266.045H366.142C365.979 266.045 365.847 266.178 365.847 266.341V292.436C365.847 292.6 365.979 292.732 366.142 292.732H372.459C372.622 292.732 372.753 292.6 372.753 292.436V266.341C372.753 266.178 372.622 266.045 372.459 266.045Z" fill="#FF7C00"/>
<path d="M369.3 262.518C371.327 262.518 372.97 260.937 372.97 258.987C372.97 257.036 371.327 255.455 369.3 255.455C367.273 255.455 365.63 257.036 365.63 258.987C365.63 260.937 367.273 262.518 369.3 262.518Z" fill="#FF7C00"/>
<path fill-rule="evenodd" clip-rule="evenodd" d="M352.195 283.401L354.785 292.03C354.919 292.54 355.183 292.665 355.54 292.659H362.172C362.683 292.665 362.72 292.509 362.642 292.165L351.688 255.403C351.668 255.336 351.616 255.289 351.513 255.289L342.327 255.263C341.965 255.263 341.96 255.45 341.991 255.804C342.105 257.083 342.043 257.801 341.774 258.805L332.076 292.186C331.973 292.503 331.999 292.659 332.412 292.665L338.672 292.659C339.334 292.639 339.37 292.457 339.484 292.124L341.655 283.401H352.195ZM350.856 276.692H343.252L346.938 261.691L350.856 276.692Z" fill="#FF7C00"/>
<path d="M337.154 354L336.429 351.621H332.786L332.061 354H329.778L333.305 343.965H335.896L339.437 354H337.154ZM335.923 349.844L335.199 347.52C335.153 347.365 335.092 347.166 335.014 346.925C334.941 346.679 334.866 346.43 334.789 346.18C334.716 345.924 334.656 345.703 334.611 345.517C334.565 345.703 334.502 345.936 334.419 346.214C334.342 346.487 334.267 346.747 334.194 346.993C334.121 347.239 334.069 347.415 334.037 347.52L333.319 349.844H335.923ZM343.238 354.137C342.385 354.137 341.69 353.804 341.153 353.139C340.619 352.469 340.353 351.487 340.353 350.192C340.353 348.884 340.624 347.896 341.166 347.226C341.709 346.551 342.417 346.214 343.292 346.214C343.657 346.214 343.978 346.264 344.256 346.364C344.534 346.465 344.773 346.599 344.974 346.768C345.179 346.936 345.352 347.125 345.493 347.335H345.562C345.534 347.189 345.5 346.975 345.459 346.692C345.423 346.405 345.405 346.111 345.405 345.811V343.363H347.496V354H345.897L345.493 353.009H345.405C345.272 353.218 345.106 353.41 344.906 353.583C344.71 353.752 344.475 353.886 344.201 353.986C343.928 354.087 343.607 354.137 343.238 354.137ZM343.969 352.476C344.539 352.476 344.94 352.307 345.172 351.97C345.409 351.628 345.534 351.115 345.548 350.432V350.206C345.548 349.463 345.434 348.896 345.206 348.504C344.978 348.107 344.555 347.909 343.935 347.909C343.475 347.909 343.115 348.107 342.855 348.504C342.595 348.9 342.465 349.472 342.465 350.22C342.465 350.967 342.595 351.53 342.855 351.908C343.119 352.286 343.491 352.476 343.969 352.476ZM356.902 350.165C356.902 350.803 356.816 351.368 356.643 351.86C356.474 352.353 356.226 352.77 355.897 353.111C355.574 353.449 355.182 353.704 354.722 353.877C354.266 354.05 353.751 354.137 353.177 354.137C352.639 354.137 352.145 354.05 351.693 353.877C351.247 353.704 350.857 353.449 350.524 353.111C350.196 352.77 349.941 352.353 349.759 351.86C349.581 351.368 349.492 350.803 349.492 350.165C349.492 349.317 349.643 348.6 349.943 348.012C350.244 347.424 350.673 346.977 351.229 346.672C351.785 346.367 352.448 346.214 353.218 346.214C353.933 346.214 354.567 346.367 355.118 346.672C355.674 346.977 356.109 347.424 356.424 348.012C356.743 348.6 356.902 349.317 356.902 350.165ZM351.618 350.165C351.618 350.666 351.673 351.088 351.782 351.43C351.892 351.771 352.062 352.029 352.295 352.202C352.527 352.375 352.83 352.462 353.204 352.462C353.573 352.462 353.872 352.375 354.1 352.202C354.332 352.029 354.501 351.771 354.605 351.43C354.715 351.088 354.77 350.666 354.77 350.165C354.77 349.659 354.715 349.24 354.605 348.907C354.501 348.57 354.332 348.317 354.1 348.148C353.867 347.98 353.564 347.896 353.19 347.896C352.639 347.896 352.238 348.085 351.987 348.463C351.741 348.841 351.618 349.409 351.618 350.165ZM360.99 343.363V345.838C360.99 346.125 360.981 346.41 360.963 346.692C360.949 346.975 360.931 347.194 360.908 347.349H360.99C361.19 347.034 361.464 346.768 361.81 346.549C362.157 346.326 362.606 346.214 363.157 346.214C364.014 346.214 364.709 346.549 365.242 347.219C365.775 347.889 366.042 348.871 366.042 350.165C366.042 351.035 365.919 351.767 365.673 352.359C365.426 352.947 365.082 353.392 364.64 353.692C364.198 353.989 363.686 354.137 363.102 354.137C362.542 354.137 362.1 354.036 361.776 353.836C361.453 353.635 361.19 353.41 360.99 353.159H360.846L360.498 354H358.905V343.363H360.99ZM362.487 347.882C362.122 347.882 361.833 347.957 361.619 348.107C361.405 348.258 361.247 348.483 361.147 348.784C361.051 349.085 360.999 349.465 360.99 349.926V350.151C360.99 350.894 361.099 351.464 361.318 351.86C361.537 352.252 361.936 352.448 362.514 352.448C362.943 352.448 363.282 352.25 363.533 351.854C363.788 351.457 363.916 350.885 363.916 350.138C363.916 349.39 363.788 348.827 363.533 348.449C363.278 348.071 362.929 347.882 362.487 347.882ZM371.196 346.214C371.902 346.214 372.511 346.351 373.021 346.624C373.531 346.893 373.926 347.285 374.204 347.8C374.482 348.315 374.621 348.944 374.621 349.687V350.698H369.692C369.715 351.286 369.89 351.749 370.218 352.086C370.551 352.419 371.011 352.585 371.599 352.585C372.087 352.585 372.533 352.535 372.939 352.435C373.345 352.334 373.761 352.184 374.19 351.983V353.597C373.812 353.784 373.415 353.92 373 354.007C372.59 354.093 372.091 354.137 371.503 354.137C370.738 354.137 370.059 353.995 369.466 353.713C368.878 353.43 368.416 353 368.079 352.421C367.746 351.842 367.58 351.113 367.58 350.233C367.58 349.34 367.73 348.597 368.031 348.005C368.336 347.408 368.76 346.961 369.302 346.665C369.845 346.364 370.476 346.214 371.196 346.214ZM371.209 347.697C370.804 347.697 370.467 347.827 370.198 348.087C369.933 348.347 369.781 348.755 369.74 349.311H372.665C372.661 349.001 372.604 348.725 372.495 348.483C372.39 348.242 372.23 348.05 372.016 347.909C371.806 347.768 371.538 347.697 371.209 347.697ZM316.674 373V363.006H318.793V373H316.674ZM323.51 373H321.425V362.363H323.51V373ZM328.069 373H325.984V362.363H328.069V373ZM337.557 365.357V373H335.958L335.677 372.022H335.568C335.404 372.282 335.199 372.494 334.953 372.658C334.707 372.822 334.435 372.943 334.139 373.021C333.843 373.098 333.535 373.137 333.216 373.137C332.669 373.137 332.193 373.041 331.788 372.85C331.382 372.654 331.065 372.351 330.837 371.94C330.614 371.53 330.502 370.997 330.502 370.341V365.357H332.587V369.821C332.587 370.368 332.685 370.781 332.881 371.059C333.077 371.337 333.39 371.476 333.818 371.476C334.242 371.476 334.574 371.38 334.816 371.188C335.058 370.993 335.226 370.708 335.322 370.334C335.422 369.956 335.472 369.495 335.472 368.953V365.357H337.557ZM345.357 370.73C345.357 371.25 345.234 371.69 344.988 372.05C344.746 372.405 344.384 372.676 343.901 372.863C343.418 373.046 342.816 373.137 342.096 373.137C341.563 373.137 341.105 373.103 340.722 373.034C340.344 372.966 339.961 372.852 339.574 372.692V370.97C339.988 371.157 340.433 371.312 340.907 371.435C341.385 371.553 341.804 371.612 342.164 371.612C342.57 371.612 342.859 371.553 343.032 371.435C343.21 371.312 343.299 371.152 343.299 370.956C343.299 370.828 343.263 370.715 343.19 370.614C343.121 370.509 342.971 370.393 342.739 370.266C342.506 370.133 342.142 369.963 341.645 369.753C341.166 369.552 340.772 369.35 340.462 369.145C340.157 368.939 339.929 368.698 339.779 368.42C339.633 368.137 339.56 367.78 339.56 367.347C339.56 366.64 339.833 366.109 340.38 365.754C340.932 365.394 341.668 365.214 342.588 365.214C343.062 365.214 343.513 365.262 343.942 365.357C344.375 365.453 344.819 365.606 345.275 365.815L344.646 367.319C344.268 367.155 343.91 367.021 343.573 366.916C343.24 366.811 342.9 366.759 342.554 366.759C342.249 366.759 342.019 366.8 341.864 366.882C341.709 366.964 341.631 367.089 341.631 367.258C341.631 367.381 341.67 367.49 341.747 367.586C341.829 367.682 341.984 367.789 342.212 367.907C342.445 368.021 342.784 368.169 343.231 368.352C343.664 368.529 344.04 368.716 344.359 368.912C344.678 369.104 344.924 369.343 345.097 369.63C345.27 369.912 345.357 370.279 345.357 370.73ZM350.483 371.476C350.711 371.476 350.932 371.453 351.146 371.407C351.365 371.362 351.582 371.305 351.796 371.236V372.788C351.573 372.888 351.295 372.97 350.962 373.034C350.634 373.103 350.274 373.137 349.882 373.137C349.426 373.137 349.016 373.064 348.651 372.918C348.291 372.768 348.007 372.51 347.797 372.146C347.592 371.776 347.489 371.264 347.489 370.607V366.923H346.491V366.041L347.64 365.344L348.241 363.73H349.574V365.357H351.714V366.923H349.574V370.607C349.574 370.899 349.656 371.118 349.82 371.264C349.989 371.405 350.21 371.476 350.483 371.476ZM357.893 365.214C357.998 365.214 358.119 365.221 358.256 365.234C358.397 365.243 358.511 365.257 358.597 365.275L358.44 367.23C358.372 367.208 358.274 367.192 358.146 367.183C358.023 367.169 357.916 367.162 357.825 367.162C357.556 367.162 357.294 367.196 357.039 367.265C356.788 367.333 356.563 367.445 356.362 367.6C356.162 367.75 356.002 367.951 355.884 368.201C355.77 368.447 355.713 368.75 355.713 369.11V373H353.628V365.357H355.207L355.514 366.643H355.617C355.767 366.383 355.954 366.146 356.177 365.932C356.405 365.713 356.663 365.54 356.95 365.412C357.242 365.28 357.556 365.214 357.893 365.214ZM363.396 365.2C364.421 365.2 365.207 365.424 365.754 365.87C366.301 366.317 366.575 366.996 366.575 367.907V373H365.119L364.715 371.961H364.661C364.442 372.234 364.219 372.458 363.991 372.631C363.763 372.804 363.501 372.932 363.205 373.014C362.908 373.096 362.548 373.137 362.124 373.137C361.673 373.137 361.268 373.05 360.908 372.877C360.552 372.704 360.272 372.439 360.067 372.084C359.862 371.724 359.759 371.268 359.759 370.717C359.759 369.906 360.044 369.309 360.614 368.926C361.183 368.538 362.038 368.324 363.177 368.283L364.503 368.242V367.907C364.503 367.506 364.399 367.212 364.189 367.025C363.979 366.839 363.688 366.745 363.314 366.745C362.945 366.745 362.582 366.798 362.227 366.902C361.872 367.007 361.516 367.139 361.161 367.299L360.47 365.891C360.876 365.676 361.329 365.508 361.831 365.385C362.336 365.262 362.858 365.2 363.396 365.2ZM364.503 369.459L363.697 369.486C363.022 369.505 362.553 369.625 362.289 369.849C362.029 370.072 361.899 370.366 361.899 370.73C361.899 371.049 361.992 371.277 362.179 371.414C362.366 371.546 362.61 371.612 362.911 371.612C363.357 371.612 363.733 371.48 364.039 371.216C364.348 370.951 364.503 370.576 364.503 370.088V369.459ZM372.228 371.476C372.456 371.476 372.677 371.453 372.891 371.407C373.11 371.362 373.326 371.305 373.54 371.236V372.788C373.317 372.888 373.039 372.97 372.706 373.034C372.378 373.103 372.018 373.137 371.626 373.137C371.17 373.137 370.76 373.064 370.396 372.918C370.036 372.768 369.751 372.51 369.541 372.146C369.336 371.776 369.234 371.264 369.234 370.607V366.923H368.236V366.041L369.384 365.344L369.986 363.73H371.319V365.357H373.458V366.923H371.319V370.607C371.319 370.899 371.401 371.118 371.565 371.264C371.733 371.405 371.954 371.476 372.228 371.476ZM382.317 369.165C382.317 369.803 382.231 370.368 382.057 370.86C381.889 371.353 381.641 371.77 381.312 372.111C380.989 372.449 380.597 372.704 380.137 372.877C379.681 373.05 379.166 373.137 378.592 373.137C378.054 373.137 377.559 373.05 377.108 372.877C376.662 372.704 376.272 372.449 375.939 372.111C375.611 371.77 375.356 371.353 375.174 370.86C374.996 370.368 374.907 369.803 374.907 369.165C374.907 368.317 375.057 367.6 375.358 367.012C375.659 366.424 376.087 365.977 376.643 365.672C377.199 365.367 377.863 365.214 378.633 365.214C379.348 365.214 379.982 365.367 380.533 365.672C381.089 365.977 381.524 366.424 381.839 367.012C382.158 367.6 382.317 368.317 382.317 369.165ZM377.033 369.165C377.033 369.666 377.088 370.088 377.197 370.43C377.307 370.771 377.477 371.029 377.71 371.202C377.942 371.375 378.245 371.462 378.619 371.462C378.988 371.462 379.287 371.375 379.515 371.202C379.747 371.029 379.916 370.771 380.02 370.43C380.13 370.088 380.184 369.666 380.184 369.165C380.184 368.659 380.13 368.24 380.02 367.907C379.916 367.57 379.747 367.317 379.515 367.148C379.282 366.98 378.979 366.896 378.605 366.896C378.054 366.896 377.653 367.085 377.402 367.463C377.156 367.841 377.033 368.409 377.033 369.165ZM388.586 365.214C388.69 365.214 388.811 365.221 388.948 365.234C389.089 365.243 389.203 365.257 389.29 365.275L389.132 367.23C389.064 367.208 388.966 367.192 388.838 367.183C388.715 367.169 388.608 367.162 388.517 367.162C388.248 367.162 387.986 367.196 387.731 367.265C387.48 367.333 387.255 367.445 387.054 367.6C386.854 367.75 386.694 367.951 386.576 368.201C386.462 368.447 386.405 368.75 386.405 369.11V373H384.32V365.357H385.899L386.207 366.643H386.309C386.46 366.383 386.646 366.146 386.87 365.932C387.098 365.713 387.355 365.54 387.642 365.412C387.934 365.28 388.248 365.214 388.586 365.214Z" fill="#828282"/>
<path d="M274.415 462.621C273.784 463.112 273.14 463.126 272.482 462.662C271.825 462.198 271.605 461.584 271.825 460.82L274.168 453.249L268.206 449.033C267.549 448.569 267.35 447.955 267.611 447.191C267.871 446.427 268.398 446.045 269.193 446.045H276.553L278.937 438.187C279.074 437.805 279.287 437.511 279.575 437.306C279.863 437.102 280.171 437 280.5 437C280.828 437 281.137 437.102 281.424 437.306C281.712 437.511 281.925 437.805 282.062 438.187L284.447 446.045H291.806C292.601 446.045 293.129 446.427 293.39 447.191C293.649 447.955 293.45 448.569 292.793 449.033L286.831 453.249L289.175 460.82C289.394 461.584 289.175 462.198 288.517 462.662C287.859 463.126 287.215 463.112 286.584 462.621L280.5 457.996L274.415 462.621Z" fill="#070707"/>
<path d="M310.415 462.621C309.784 463.112 309.14 463.126 308.482 462.662C307.825 462.198 307.605 461.584 307.825 460.82L310.168 453.249L304.206 449.033C303.549 448.569 303.35 447.955 303.611 447.191C303.871 446.427 304.398 446.045 305.193 446.045H312.553L314.937 438.187C315.074 437.805 315.287 437.511 315.575 437.306C315.863 437.102 316.171 437 316.5 437C316.828 437 317.137 437.102 317.424 437.306C317.712 437.511 317.925 437.805 318.062 438.187L320.447 446.045H327.806C328.601 446.045 329.129 446.427 329.39 447.191C329.649 447.955 329.45 448.569 328.793 449.033L322.831 453.249L325.175 460.82C325.394 461.584 325.175 462.198 324.517 462.662C323.859 463.126 323.215 463.112 322.584 462.621L316.5 457.996L310.415 462.621Z" fill="#070707"/>
<path d="M346.415 462.621C345.784 463.112 345.14 463.126 344.482 462.662C343.825 462.198 343.605 461.584 343.825 460.82L346.168 453.249L340.206 449.033C339.549 448.569 339.35 447.955 339.611 447.191C339.871 446.427 340.398 446.045 341.193 446.045H348.553L350.937 438.187C351.074 437.805 351.287 437.511 351.575 437.306C351.863 437.102 352.171 437 352.5 437C352.828 437 353.137 437.102 353.424 437.306C353.712 437.511 353.925 437.805 354.062 438.187L356.447 446.045H363.806C364.601 446.045 365.129 446.427 365.39 447.191C365.649 447.955 365.45 448.569 364.793 449.033L358.831 453.249L361.175 460.82C361.394 461.584 361.175 462.198 360.517 462.662C359.859 463.126 359.215 463.112 358.584 462.621L352.5 457.996L346.415 462.621Z" fill="#070707"/>
<path d="M382.415 462.621C381.784 463.112 381.14 463.126 380.482 462.662C379.825 462.198 379.605 461.584 379.825 460.82L382.168 453.249L376.206 449.033C375.549 448.569 375.35 447.955 375.611 447.191C375.871 446.427 376.398 446.045 377.193 446.045H384.553L386.937 438.187C387.074 437.805 387.287 437.511 387.575 437.306C387.863 437.102 388.171 437 388.5 437C388.828 437 389.137 437.102 389.424 437.306C389.712 437.511 389.925 437.805 390.062 438.187L392.447 446.045H399.806C400.601 446.045 401.129 446.427 401.39 447.191C401.649 447.955 401.45 448.569 400.793 449.033L394.831 453.249L397.175 460.82C397.394 461.584 397.175 462.198 396.517 462.662C395.859 463.126 395.215 463.112 394.584 462.621L388.5 457.996L382.415 462.621Z" fill="#E5E5E5"/>
<path d="M418.415 462.621C417.784 463.112 417.14 463.126 416.482 462.662C415.825 462.198 415.605 461.584 415.825 460.82L418.168 453.249L412.206 449.033C411.549 448.569 411.35 447.955 411.611 447.191C411.871 446.427 412.398 446.045 413.193 446.045H420.553L422.937 438.187C423.074 437.805 423.287 437.511 423.575 437.306C423.863 437.102 424.171 437 424.5 437C424.828 437 425.137 437.102 425.424 437.306C425.712 437.511 425.925 437.805 426.062 438.187L428.447 446.045H435.806C436.601 446.045 437.129 446.427 437.39 447.191C437.649 447.955 437.45 448.569 436.793 449.033L430.831 453.249L433.175 460.82C433.394 461.584 433.175 462.198 432.517 462.662C431.859 463.126 431.215 463.112 430.584 462.621L424.5 457.996L418.415 462.621Z" fill="#E5E5E5"/>
<path d="M659.5 234H579.5V314H659.5V234Z" fill="#BC85F3"/>
<path d="M652.796 240.704H586.205V307.295H652.796V240.704Z" fill="#252653"/>
<path fill-rule="evenodd" clip-rule="evenodd" d="M611.663 283.183L614.449 292.451H622.276L611.162 255.148C611.141 255.081 611.089 255.034 610.981 255.034L601.785 255.008C601.428 255.008 601.418 255.195 601.449 255.549C601.562 256.833 601.5 257.551 601.237 258.555L591.384 292.457L598.807 292.446L601.118 283.178L611.663 283.183ZM610.33 276.463H602.71L606.406 261.447L610.33 276.463ZM631.405 280.171L645.77 280.192C646.675 279.027 646.84 276.837 646.814 275.402C646.716 269.576 642.881 264.001 635.954 263.964C624.323 263.897 622.121 278.694 626.08 287.229C627.326 289.913 629.828 291.619 632.764 292.431C634.103 292.8 635.525 292.987 636.962 292.992C639.805 293.003 642.695 292.311 645.016 290.979C645.052 290.959 645.114 290.959 645.119 290.917V290.751L645.114 285.929C645.114 285.711 644.948 285.586 644.7 285.664C641.764 286.553 631.818 289.393 631.358 280.442C631.353 280.374 631.338 280.171 631.405 280.171ZM638.606 275.339H631.291C631.327 271.428 633.111 269.207 635.866 269.197C638.368 269.186 639.96 270.934 640.037 275.246C640.037 275.443 640.037 275.339 640.037 275.339H638.606Z" fill="#BC85F3"/>
<path d="M604.154 354L603.429 351.621H599.786L599.061 354H596.778L600.305 343.965H602.896L606.437 354H604.154ZM602.923 349.844L602.199 347.52C602.153 347.365 602.092 347.166 602.014 346.925C601.941 346.679 601.866 346.43 601.789 346.18C601.716 345.924 601.656 345.703 601.611 345.517C601.565 345.703 601.502 345.936 601.419 346.214C601.342 346.487 601.267 346.747 601.194 346.993C601.121 347.239 601.069 347.415 601.037 347.52L600.319 349.844H602.923ZM610.238 354.137C609.385 354.137 608.69 353.804 608.153 353.139C607.619 352.469 607.353 351.487 607.353 350.192C607.353 348.884 607.624 347.896 608.166 347.226C608.709 346.551 609.417 346.214 610.292 346.214C610.657 346.214 610.978 346.264 611.256 346.364C611.534 346.465 611.773 346.599 611.974 346.768C612.179 346.936 612.352 347.125 612.493 347.335H612.562C612.534 347.189 612.5 346.975 612.459 346.692C612.423 346.405 612.405 346.111 612.405 345.811V343.363H614.496V354H612.897L612.493 353.009H612.405C612.272 353.218 612.106 353.41 611.906 353.583C611.71 353.752 611.475 353.886 611.201 353.986C610.928 354.087 610.607 354.137 610.238 354.137ZM610.969 352.476C611.539 352.476 611.94 352.307 612.172 351.97C612.409 351.628 612.534 351.115 612.548 350.432V350.206C612.548 349.463 612.434 348.896 612.206 348.504C611.978 348.107 611.555 347.909 610.935 347.909C610.475 347.909 610.115 348.107 609.855 348.504C609.595 348.9 609.465 349.472 609.465 350.22C609.465 350.967 609.595 351.53 609.855 351.908C610.119 352.286 610.491 352.476 610.969 352.476ZM623.902 350.165C623.902 350.803 623.816 351.368 623.643 351.86C623.474 352.353 623.226 352.77 622.897 353.111C622.574 353.449 622.182 353.704 621.722 353.877C621.266 354.05 620.751 354.137 620.177 354.137C619.639 354.137 619.145 354.05 618.693 353.877C618.247 353.704 617.857 353.449 617.524 353.111C617.196 352.77 616.941 352.353 616.759 351.86C616.581 351.368 616.492 350.803 616.492 350.165C616.492 349.317 616.643 348.6 616.943 348.012C617.244 347.424 617.673 346.977 618.229 346.672C618.785 346.367 619.448 346.214 620.218 346.214C620.933 346.214 621.567 346.367 622.118 346.672C622.674 346.977 623.109 347.424 623.424 348.012C623.743 348.6 623.902 349.317 623.902 350.165ZM618.618 350.165C618.618 350.666 618.673 351.088 618.782 351.43C618.892 351.771 619.062 352.029 619.295 352.202C619.527 352.375 619.83 352.462 620.204 352.462C620.573 352.462 620.872 352.375 621.1 352.202C621.332 352.029 621.501 351.771 621.605 351.43C621.715 351.088 621.77 350.666 621.77 350.165C621.77 349.659 621.715 349.24 621.605 348.907C621.501 348.57 621.332 348.317 621.1 348.148C620.867 347.98 620.564 347.896 620.19 347.896C619.639 347.896 619.238 348.085 618.987 348.463C618.741 348.841 618.618 349.409 618.618 350.165ZM627.99 343.363V345.838C627.99 346.125 627.981 346.41 627.963 346.692C627.949 346.975 627.931 347.194 627.908 347.349H627.99C628.19 347.034 628.464 346.768 628.81 346.549C629.157 346.326 629.606 346.214 630.157 346.214C631.014 346.214 631.709 346.549 632.242 347.219C632.775 347.889 633.042 348.871 633.042 350.165C633.042 351.035 632.919 351.767 632.673 352.359C632.426 352.947 632.082 353.392 631.64 353.692C631.198 353.989 630.686 354.137 630.102 354.137C629.542 354.137 629.1 354.036 628.776 353.836C628.453 353.635 628.19 353.41 627.99 353.159H627.846L627.498 354H625.905V343.363H627.99ZM629.487 347.882C629.122 347.882 628.833 347.957 628.619 348.107C628.405 348.258 628.247 348.483 628.147 348.784C628.051 349.085 627.999 349.465 627.99 349.926V350.151C627.99 350.894 628.099 351.464 628.318 351.86C628.537 352.252 628.936 352.448 629.514 352.448C629.943 352.448 630.282 352.25 630.533 351.854C630.788 351.457 630.916 350.885 630.916 350.138C630.916 349.39 630.788 348.827 630.533 348.449C630.278 348.071 629.929 347.882 629.487 347.882ZM638.196 346.214C638.902 346.214 639.511 346.351 640.021 346.624C640.531 346.893 640.926 347.285 641.204 347.8C641.482 348.315 641.621 348.944 641.621 349.687V350.698H636.692C636.715 351.286 636.89 351.749 637.218 352.086C637.551 352.419 638.011 352.585 638.599 352.585C639.087 352.585 639.533 352.535 639.939 352.435C640.345 352.334 640.761 352.184 641.19 351.983V353.597C640.812 353.784 640.415 353.92 640 354.007C639.59 354.093 639.091 354.137 638.503 354.137C637.738 354.137 637.059 353.995 636.466 353.713C635.878 353.43 635.416 353 635.079 352.421C634.746 351.842 634.58 351.113 634.58 350.233C634.58 349.34 634.73 348.597 635.031 348.005C635.336 347.408 635.76 346.961 636.302 346.665C636.845 346.364 637.476 346.214 638.196 346.214ZM638.209 347.697C637.804 347.697 637.467 347.827 637.198 348.087C636.933 348.347 636.781 348.755 636.74 349.311H639.665C639.661 349.001 639.604 348.725 639.495 348.483C639.39 348.242 639.23 348.05 639.016 347.909C638.806 347.768 638.538 347.697 638.209 347.697ZM582.01 373L581.285 370.621H577.642L576.917 373H574.634L578.161 362.965H580.752L584.293 373H582.01ZM580.779 368.844L580.055 366.52C580.009 366.365 579.948 366.166 579.87 365.925C579.797 365.679 579.722 365.43 579.645 365.18C579.572 364.924 579.512 364.703 579.467 364.517C579.421 364.703 579.357 364.936 579.275 365.214C579.198 365.487 579.123 365.747 579.05 365.993C578.977 366.239 578.925 366.415 578.893 366.52L578.175 368.844H580.779ZM589.898 366.923H588.094V373H586.009V366.923H584.86V365.918L586.009 365.357V364.797C586.009 364.145 586.118 363.639 586.337 363.279C586.56 362.915 586.872 362.66 587.273 362.514C587.679 362.363 588.157 362.288 588.709 362.288C589.114 362.288 589.483 362.322 589.816 362.391C590.149 362.454 590.42 362.527 590.63 362.609L590.096 364.141C589.937 364.09 589.764 364.045 589.577 364.004C589.39 363.963 589.176 363.942 588.934 363.942C588.643 363.942 588.428 364.031 588.292 364.209C588.16 364.382 588.094 364.605 588.094 364.879V365.357H589.898V366.923ZM594.601 371.476C594.829 371.476 595.05 371.453 595.264 371.407C595.483 371.362 595.699 371.305 595.914 371.236V372.788C595.69 372.888 595.412 372.97 595.08 373.034C594.751 373.103 594.391 373.137 593.999 373.137C593.544 373.137 593.134 373.064 592.769 372.918C592.409 372.768 592.124 372.51 591.915 372.146C591.709 371.776 591.607 371.264 591.607 370.607V366.923H590.609V366.041L591.757 365.344L592.359 363.73H593.692V365.357H595.832V366.923H593.692V370.607C593.692 370.899 593.774 371.118 593.938 371.264C594.107 371.405 594.328 371.476 594.601 371.476ZM600.897 365.214C601.603 365.214 602.211 365.351 602.722 365.624C603.232 365.893 603.626 366.285 603.904 366.8C604.182 367.315 604.321 367.944 604.321 368.687V369.698H599.393C599.416 370.286 599.591 370.749 599.919 371.086C600.252 371.419 600.712 371.585 601.3 371.585C601.788 371.585 602.234 371.535 602.64 371.435C603.045 371.334 603.462 371.184 603.891 370.983V372.597C603.513 372.784 603.116 372.92 602.701 373.007C602.291 373.093 601.792 373.137 601.204 373.137C600.439 373.137 599.76 372.995 599.167 372.713C598.579 372.43 598.117 372 597.779 371.421C597.447 370.842 597.28 370.113 597.28 369.233C597.28 368.34 597.431 367.597 597.732 367.005C598.037 366.408 598.461 365.961 599.003 365.665C599.545 365.364 600.177 365.214 600.897 365.214ZM600.91 366.697C600.505 366.697 600.168 366.827 599.899 367.087C599.634 367.347 599.482 367.755 599.441 368.311H602.366C602.362 368.001 602.305 367.725 602.196 367.483C602.091 367.242 601.931 367.05 601.717 366.909C601.507 366.768 601.238 366.697 600.91 366.697ZM610.562 365.214C610.667 365.214 610.788 365.221 610.925 365.234C611.066 365.243 611.18 365.257 611.267 365.275L611.109 367.23C611.041 367.208 610.943 367.192 610.815 367.183C610.692 367.169 610.585 367.162 610.494 367.162C610.225 367.162 609.963 367.196 609.708 367.265C609.457 367.333 609.232 367.445 609.031 367.6C608.831 367.75 608.671 367.951 608.553 368.201C608.439 368.447 608.382 368.75 608.382 369.11V373H606.297V365.357H607.876L608.184 366.643H608.286C608.436 366.383 608.623 366.146 608.847 365.932C609.074 365.713 609.332 365.54 609.619 365.412C609.911 365.28 610.225 365.214 610.562 365.214ZM622.771 373H617.015V363.006H622.771V364.742H619.134V366.937H622.518V368.673H619.134V371.25H622.771V373ZM629.203 366.923H627.399V373H625.314V366.923H624.165V365.918L625.314 365.357V364.797C625.314 364.145 625.423 363.639 625.642 363.279C625.865 362.915 626.177 362.66 626.578 362.514C626.984 362.363 627.462 362.288 628.014 362.288C628.419 362.288 628.788 362.322 629.121 362.391C629.454 362.454 629.725 362.527 629.935 362.609L629.401 364.141C629.242 364.09 629.069 364.045 628.882 364.004C628.695 363.963 628.481 363.942 628.239 363.942C627.948 363.942 627.733 364.031 627.597 364.209C627.465 364.382 627.399 364.605 627.399 364.879V365.357H629.203V366.923ZM634.624 366.923H632.819V373H630.734V366.923H629.586V365.918L630.734 365.357V364.797C630.734 364.145 630.844 363.639 631.063 363.279C631.286 362.915 631.598 362.66 631.999 362.514C632.405 362.363 632.883 362.288 633.435 362.288C633.84 362.288 634.209 362.322 634.542 362.391C634.875 362.454 635.146 362.527 635.356 362.609L634.822 364.141C634.663 364.09 634.49 364.045 634.303 364.004C634.116 363.963 633.902 363.942 633.66 363.942C633.369 363.942 633.154 364.031 633.018 364.209C632.885 364.382 632.819 364.605 632.819 364.879V365.357H634.624V366.923ZM639.252 365.214C639.958 365.214 640.567 365.351 641.077 365.624C641.587 365.893 641.982 366.285 642.26 366.8C642.538 367.315 642.677 367.944 642.677 368.687V369.698H637.748C637.771 370.286 637.946 370.749 638.274 371.086C638.607 371.419 639.067 371.585 639.655 371.585C640.143 371.585 640.589 371.535 640.995 371.435C641.401 371.334 641.818 371.184 642.246 370.983V372.597C641.868 372.784 641.471 372.92 641.056 373.007C640.646 373.093 640.147 373.137 639.559 373.137C638.794 373.137 638.115 372.995 637.522 372.713C636.934 372.43 636.472 372 636.135 371.421C635.802 370.842 635.636 370.113 635.636 369.233C635.636 368.34 635.786 367.597 636.087 367.005C636.392 366.408 636.816 365.961 637.358 365.665C637.901 365.364 638.532 365.214 639.252 365.214ZM639.265 366.697C638.86 366.697 638.523 366.827 638.254 367.087C637.989 367.347 637.837 367.755 637.796 368.311H640.721C640.717 368.001 640.66 367.725 640.551 367.483C640.446 367.242 640.286 367.05 640.072 366.909C639.862 366.768 639.594 366.697 639.265 366.697ZM647.755 373.137C646.999 373.137 646.354 373 645.821 372.727C645.288 372.449 644.882 372.02 644.604 371.441C644.326 370.863 644.187 370.122 644.187 369.22C644.187 368.285 644.344 367.524 644.659 366.937C644.978 366.344 645.417 365.909 645.978 365.631C646.543 365.353 647.197 365.214 647.94 365.214C648.469 365.214 648.924 365.266 649.307 365.371C649.695 365.471 650.032 365.592 650.319 365.733L649.704 367.347C649.376 367.215 649.07 367.107 648.788 367.025C648.505 366.939 648.223 366.896 647.94 366.896C647.575 366.896 647.272 366.982 647.031 367.155C646.789 367.324 646.609 367.579 646.491 367.921C646.372 368.263 646.313 368.691 646.313 369.206C646.313 369.712 646.377 370.131 646.504 370.464C646.632 370.797 646.817 371.045 647.058 371.209C647.3 371.368 647.594 371.448 647.94 371.448C648.373 371.448 648.758 371.391 649.095 371.277C649.432 371.159 649.761 370.995 650.08 370.785V372.569C649.761 372.77 649.426 372.913 649.075 373C648.728 373.091 648.289 373.137 647.755 373.137ZM655.357 371.476C655.585 371.476 655.806 371.453 656.02 371.407C656.239 371.362 656.455 371.305 656.669 371.236V372.788C656.446 372.888 656.168 372.97 655.835 373.034C655.507 373.103 655.147 373.137 654.755 373.137C654.299 373.137 653.889 373.064 653.525 372.918C653.165 372.768 652.88 372.51 652.67 372.146C652.465 371.776 652.363 371.264 652.363 370.607V366.923H651.364V366.041L652.513 365.344L653.114 363.73H654.448V365.357H656.587V366.923H654.448V370.607C654.448 370.899 654.53 371.118 654.694 371.264C654.862 371.405 655.083 371.476 655.357 371.476ZM663.833 370.73C663.833 371.25 663.71 371.69 663.464 372.05C663.222 372.405 662.86 372.676 662.377 372.863C661.894 373.046 661.292 373.137 660.572 373.137C660.039 373.137 659.581 373.103 659.198 373.034C658.82 372.966 658.437 372.852 658.05 372.692V370.97C658.464 371.157 658.909 371.312 659.383 371.435C659.861 371.553 660.281 371.612 660.641 371.612C661.046 371.612 661.336 371.553 661.509 371.435C661.686 371.312 661.775 371.152 661.775 370.956C661.775 370.828 661.739 370.715 661.666 370.614C661.598 370.509 661.447 370.393 661.215 370.266C660.982 370.133 660.618 369.963 660.121 369.753C659.643 369.552 659.248 369.35 658.938 369.145C658.633 368.939 658.405 368.698 658.255 368.42C658.109 368.137 658.036 367.78 658.036 367.347C658.036 366.64 658.31 366.109 658.856 365.754C659.408 365.394 660.144 365.214 661.064 365.214C661.538 365.214 661.99 365.262 662.418 365.357C662.851 365.453 663.295 365.606 663.751 365.815L663.122 367.319C662.744 367.155 662.386 367.021 662.049 366.916C661.716 366.811 661.377 366.759 661.03 366.759C660.725 366.759 660.495 366.8 660.34 366.882C660.185 366.964 660.107 367.089 660.107 367.258C660.107 367.381 660.146 367.49 660.224 367.586C660.306 367.682 660.461 367.789 660.688 367.907C660.921 368.021 661.26 368.169 661.707 368.352C662.14 368.529 662.516 368.716 662.835 368.912C663.154 369.104 663.4 369.343 663.573 369.63C663.746 369.912 663.833 370.279 663.833 370.73Z" fill="#828282"/>
<path d="M541.415 462.621C540.784 463.112 540.14 463.126 539.482 462.662C538.825 462.198 538.605 461.584 538.825 460.82L541.168 453.249L535.206 449.033C534.549 448.569 534.35 447.955 534.611 447.191C534.871 446.427 535.398 446.045 536.193 446.045H543.553L545.937 438.187C546.074 437.805 546.287 437.511 546.575 437.306C546.863 437.102 547.171 437 547.5 437C547.828 437 548.137 437.102 548.424 437.306C548.712 437.511 548.925 437.805 549.062 438.187L551.447 446.045H558.806C559.601 446.045 560.129 446.427 560.39 447.191C560.649 447.955 560.45 448.569 559.793 449.033L553.831 453.249L556.175 460.82C556.394 461.584 556.175 462.198 555.517 462.662C554.859 463.126 554.215 463.112 553.584 462.621L547.5 457.996L541.415 462.621Z" fill="#070707"/>
<path d="M577.415 462.621C576.784 463.112 576.14 463.126 575.482 462.662C574.825 462.198 574.605 461.584 574.825 460.82L577.168 453.249L571.206 449.033C570.549 448.569 570.35 447.955 570.611 447.191C570.871 446.427 571.398 446.045 572.193 446.045H579.553L581.937 438.187C582.074 437.805 582.287 437.511 582.575 437.306C582.863 437.102 583.171 437 583.5 437C583.828 437 584.137 437.102 584.424 437.306C584.712 437.511 584.925 437.805 585.062 438.187L587.447 446.045H594.806C595.601 446.045 596.129 446.427 596.39 447.191C596.649 447.955 596.45 448.569 595.793 449.033L589.831 453.249L592.175 460.82C592.394 461.584 592.175 462.198 591.517 462.662C590.859 463.126 590.215 463.112 589.584 462.621L583.5 457.996L577.415 462.621Z" fill="#070707"/>
<path d="M613.415 462.621C612.784 463.112 612.14 463.126 611.482 462.662C610.825 462.198 610.605 461.584 610.825 460.82L613.168 453.249L607.206 449.033C606.549 448.569 606.35 447.955 606.611 447.191C606.871 446.427 607.398 446.045 608.193 446.045H615.553L617.937 438.187C618.074 437.805 618.287 437.511 618.575 437.306C618.863 437.102 619.171 437 619.5 437C619.828 437 620.137 437.102 620.424 437.306C620.712 437.511 620.925 437.805 621.062 438.187L623.447 446.045H630.806C631.601 446.045 632.129 446.427 632.39 447.191C632.649 447.955 632.45 448.569 631.793 449.033L625.831 453.249L628.175 460.82C628.394 461.584 628.175 462.198 627.517 462.662C626.859 463.126 626.215 463.112 625.584 462.621L619.5 457.996L613.415 462.621Z" fill="#070707"/>
<path d="M649.415 462.621C648.784 463.112 648.14 463.126 647.482 462.662C646.825 462.198 646.605 461.584 646.825 460.82L649.168 453.249L643.206 449.033C642.549 448.569 642.35 447.955 642.611 447.191C642.871 446.427 643.398 446.045 644.193 446.045H651.553L653.937 438.187C654.074 437.805 654.287 437.511 654.575 437.306C654.863 437.102 655.171 437 655.5 437C655.828 437 656.137 437.102 656.424 437.306C656.712 437.511 656.925 437.805 657.062 438.187L659.447 446.045H666.806C667.601 446.045 668.129 446.427 668.39 447.191C668.649 447.955 668.45 448.569 667.793 449.033L661.831 453.249L664.175 460.82C664.394 461.584 664.175 462.198 663.517 462.662C662.859 463.126 662.215 463.112 661.584 462.621L655.5 457.996L649.415 462.621Z" fill="#070707"/>
<path d="M685.415 462.621C684.784 463.112 684.14 463.126 683.482 462.662C682.825 462.198 682.605 461.584 682.825 460.82L685.168 453.249L679.206 449.033C678.549 448.569 678.35 447.955 678.611 447.191C678.871 446.427 679.398 446.045 680.193 446.045H687.553L689.937 438.187C690.074 437.805 690.287 437.511 690.575 437.306C690.863 437.102 691.171 437 691.5 437C691.828 437 692.137 437.102 692.424 437.306C692.712 437.511 692.925 437.805 693.062 438.187L695.447 446.045H702.806C703.601 446.045 704.129 446.427 704.39 447.191C704.649 447.955 704.45 448.569 703.793 449.033L697.831 453.249L700.175 460.82C700.394 461.584 700.175 462.198 699.517 462.662C698.859 463.126 698.215 463.112 697.584 462.621L691.5 457.996L685.415 462.621Z" fill="#E5E5E5"/>
<path d="M873.167 314C880.527 314 886.5 308.026 886.5 300.666V287.333H873.167C865.807 287.333 859.833 293.306 859.833 300.666C859.833 308.026 865.807 314 873.167 314Z" fill="#0ACF83"/>
<path d="M859.833 274C859.833 266.64 865.807 260.667 873.167 260.667H886.5V287.334H873.167C865.807 287.334 859.833 281.36 859.833 274Z" fill="#A259FF"/>
<path d="M859.833 247.333C859.833 239.973 865.807 234 873.167 234H886.5V260.667H873.167C865.807 260.667 859.833 254.693 859.833 247.333Z" fill="#F24E1E"/>
<path d="M886.5 234H899.833C907.193 234 913.167 239.973 913.167 247.333C913.167 254.693 907.193 260.667 899.833 260.667H886.5V234Z" fill="#FF7262"/>
<path d="M913.167 274C913.167 281.36 907.193 287.334 899.833 287.334C892.473 287.334 886.5 281.36 886.5 274C886.5 266.64 892.473 260.667 899.833 260.667C907.193 260.667 913.167 266.64 913.167 274Z" fill="#1ABCFE"/>
<path d="M868.235 354H866.15V344.006H871.878V345.742H868.235V348.319H871.626V350.049H868.235V354ZM876.034 346.357V354H873.949V346.357H876.034ZM874.995 343.363C875.305 343.363 875.572 343.436 875.795 343.582C876.019 343.723 876.13 343.99 876.13 344.382C876.13 344.769 876.019 345.038 875.795 345.188C875.572 345.334 875.305 345.407 874.995 345.407C874.681 345.407 874.412 345.334 874.189 345.188C873.97 345.038 873.861 344.769 873.861 344.382C873.861 343.99 873.97 343.723 874.189 343.582C874.412 343.436 874.681 343.363 874.995 343.363ZM880.744 357.363C879.678 357.363 878.862 357.176 878.297 356.803C877.736 356.434 877.456 355.914 877.456 355.244C877.456 354.784 877.6 354.399 877.887 354.089C878.174 353.779 878.595 353.558 879.151 353.426C878.937 353.335 878.75 353.187 878.591 352.981C878.431 352.772 878.352 352.551 878.352 352.318C878.352 352.027 878.436 351.785 878.604 351.594C878.773 351.398 879.017 351.206 879.336 351.02C878.935 350.846 878.616 350.568 878.379 350.186C878.146 349.803 878.03 349.352 878.03 348.832C878.03 348.276 878.151 347.804 878.393 347.417C878.639 347.025 878.994 346.727 879.459 346.521C879.928 346.316 880.498 346.214 881.168 346.214C881.309 346.214 881.473 346.223 881.66 346.241C881.847 346.259 882.018 346.28 882.173 346.303C882.332 346.326 882.439 346.344 882.494 346.357H885.16V347.417L883.964 347.725C884.073 347.893 884.155 348.073 884.21 348.265C884.265 348.456 884.292 348.659 884.292 348.873C884.292 349.693 884.005 350.334 883.431 350.794C882.861 351.25 882.068 351.478 881.052 351.478C880.81 351.464 880.582 351.446 880.368 351.423C880.263 351.505 880.184 351.591 880.129 351.683C880.074 351.774 880.047 351.869 880.047 351.97C880.047 352.07 880.088 352.154 880.17 352.223C880.257 352.286 880.384 352.337 880.553 352.373C880.726 352.405 880.94 352.421 881.195 352.421H882.494C883.333 352.421 883.971 352.601 884.408 352.961C884.85 353.321 885.071 353.85 885.071 354.547C885.071 355.44 884.698 356.133 883.95 356.625C883.207 357.117 882.139 357.363 880.744 357.363ZM880.833 356.003C881.33 356.003 881.756 355.955 882.111 355.859C882.471 355.768 882.747 355.636 882.938 355.463C883.13 355.294 883.226 355.091 883.226 354.854C883.226 354.663 883.169 354.51 883.055 354.396C882.945 354.287 882.777 354.21 882.549 354.164C882.326 354.118 882.038 354.096 881.688 354.096H880.607C880.352 354.096 880.122 354.137 879.917 354.219C879.716 354.301 879.557 354.415 879.438 354.561C879.32 354.711 879.261 354.884 879.261 355.08C879.261 355.367 879.397 355.593 879.671 355.757C879.949 355.921 880.336 356.003 880.833 356.003ZM881.168 350.206C881.56 350.206 881.847 350.085 882.029 349.844C882.212 349.602 882.303 349.274 882.303 348.859C882.303 348.399 882.207 348.055 882.016 347.827C881.829 347.595 881.546 347.479 881.168 347.479C880.785 347.479 880.498 347.595 880.307 347.827C880.115 348.055 880.02 348.399 880.02 348.859C880.02 349.274 880.113 349.602 880.3 349.844C880.491 350.085 880.781 350.206 881.168 350.206ZM895.68 346.214C896.546 346.214 897.2 346.437 897.642 346.884C898.089 347.326 898.312 348.037 898.312 349.017V354H896.22V349.536C896.22 348.989 896.127 348.577 895.94 348.299C895.753 348.021 895.464 347.882 895.072 347.882C894.521 347.882 894.129 348.08 893.896 348.477C893.664 348.868 893.548 349.431 893.548 350.165V354H891.463V349.536C891.463 349.172 891.422 348.866 891.34 348.62C891.258 348.374 891.132 348.189 890.964 348.066C890.795 347.943 890.579 347.882 890.314 347.882C889.927 347.882 889.621 347.98 889.398 348.176C889.179 348.367 889.022 348.652 888.926 349.03C888.835 349.404 888.79 349.862 888.79 350.404V354H886.705V346.357H888.298L888.578 347.335H888.694C888.849 347.071 889.043 346.856 889.275 346.692C889.512 346.528 889.772 346.408 890.054 346.33C890.337 346.253 890.624 346.214 890.916 346.214C891.476 346.214 891.95 346.305 892.338 346.487C892.73 346.67 893.03 346.952 893.24 347.335H893.425C893.652 346.943 893.974 346.658 894.388 346.48C894.808 346.303 895.238 346.214 895.68 346.214ZM903.87 346.2C904.895 346.2 905.681 346.424 906.228 346.87C906.775 347.317 907.048 347.996 907.048 348.907V354H905.592L905.189 352.961H905.134C904.915 353.234 904.692 353.458 904.464 353.631C904.236 353.804 903.974 353.932 903.678 354.014C903.382 354.096 903.022 354.137 902.598 354.137C902.147 354.137 901.741 354.05 901.381 353.877C901.026 353.704 900.746 353.439 900.54 353.084C900.335 352.724 900.233 352.268 900.233 351.717C900.233 350.906 900.518 350.309 901.087 349.926C901.657 349.538 902.511 349.324 903.651 349.283L904.977 349.242V348.907C904.977 348.506 904.872 348.212 904.663 348.025C904.453 347.839 904.161 347.745 903.788 347.745C903.418 347.745 903.056 347.798 902.701 347.902C902.345 348.007 901.99 348.139 901.634 348.299L900.944 346.891C901.349 346.676 901.803 346.508 902.304 346.385C902.81 346.262 903.332 346.2 903.87 346.2ZM904.977 350.459L904.17 350.486C903.496 350.505 903.026 350.625 902.762 350.849C902.502 351.072 902.372 351.366 902.372 351.73C902.372 352.049 902.466 352.277 902.653 352.414C902.84 352.546 903.083 352.612 903.384 352.612C903.831 352.612 904.207 352.48 904.512 352.216C904.822 351.951 904.977 351.576 904.977 351.088V350.459Z" fill="#828282"/>
<path d="M808.415 463.621C807.784 464.112 807.14 464.126 806.482 463.662C805.825 463.198 805.605 462.584 805.825 461.82L808.168 454.249L802.206 450.033C801.549 449.569 801.35 448.955 801.611 448.191C801.871 447.427 802.398 447.045 803.193 447.045H810.553L812.937 439.187C813.074 438.805 813.287 438.511 813.575 438.306C813.863 438.102 814.171 438 814.5 438C814.828 438 815.137 438.102 815.424 438.306C815.712 438.511 815.925 438.805 816.062 439.187L818.447 447.045H825.806C826.601 447.045 827.129 447.427 827.39 448.191C827.649 448.955 827.45 449.569 826.793 450.033L820.831 454.249L823.175 461.82C823.394 462.584 823.175 463.198 822.517 463.662C821.859 464.126 821.215 464.112 820.584 463.621L814.5 458.996L808.415 463.621Z" fill="#070707"/>
<path d="M844.415 463.621C843.784 464.112 843.14 464.126 842.482 463.662C841.825 463.198 841.605 462.584 841.825 461.82L844.168 454.249L838.206 450.033C837.549 449.569 837.35 448.955 837.611 448.191C837.871 447.427 838.398 447.045 839.193 447.045H846.553L848.937 439.187C849.074 438.805 849.287 438.511 849.575 438.306C849.863 438.102 850.171 438 850.5 438C850.828 438 851.137 438.102 851.424 438.306C851.712 438.511 851.925 438.805 852.062 439.187L854.447 447.045H861.806C862.601 447.045 863.129 447.427 863.39 448.191C863.649 448.955 863.45 449.569 862.793 450.033L856.831 454.249L859.175 461.82C859.394 462.584 859.175 463.198 858.517 463.662C857.859 464.126 857.215 464.112 856.584 463.621L850.5 458.996L844.415 463.621Z" fill="#070707"/>
<path d="M880.415 463.621C879.784 464.112 879.14 464.126 878.482 463.662C877.825 463.198 877.605 462.584 877.825 461.82L880.168 454.249L874.206 450.033C873.549 449.569 873.35 448.955 873.611 448.191C873.871 447.427 874.398 447.045 875.193 447.045H882.553L884.937 439.187C885.074 438.805 885.287 438.511 885.575 438.306C885.863 438.102 886.171 438 886.5 438C886.828 438 887.137 438.102 887.424 438.306C887.712 438.511 887.925 438.805 888.062 439.187L890.447 447.045H897.806C898.601 447.045 899.129 447.427 899.39 448.191C899.649 448.955 899.45 449.569 898.793 450.033L892.831 454.249L895.175 461.82C895.394 462.584 895.175 463.198 894.517 463.662C893.859 464.126 893.215 464.112 892.584 463.621L886.5 458.996L880.415 463.621Z" fill="#070707"/>
<path d="M916.415 463.621C915.784 464.112 915.14 464.126 914.482 463.662C913.825 463.198 913.605 462.584 913.825 461.82L916.168 454.249L910.206 450.033C909.549 449.569 909.35 448.955 909.611 448.191C909.871 447.427 910.398 447.045 911.193 447.045H918.553L920.937 439.187C921.074 438.805 921.287 438.511 921.575 438.306C921.863 438.102 922.171 438 922.5 438C922.828 438 923.137 438.102 923.424 438.306C923.712 438.511 923.925 438.805 924.062 439.187L926.447 447.045H933.806C934.601 447.045 935.129 447.427 935.39 448.191C935.649 448.955 935.45 449.569 934.793 450.033L928.831 454.249L931.175 461.82C931.394 462.584 931.175 463.198 930.517 463.662C929.859 464.126 929.215 464.112 928.584 463.621L922.5 458.996L916.415 463.621Z" fill="#070707"/>
<path d="M952.415 463.621C951.784 464.112 951.14 464.126 950.482 463.662C949.825 463.198 949.605 462.584 949.825 461.82L952.168 454.249L946.206 450.033C945.549 449.569 945.35 448.955 945.611 448.191C945.871 447.427 946.398 447.045 947.193 447.045H954.553L956.937 439.187C957.074 438.805 957.287 438.511 957.575 438.306C957.863 438.102 958.171 438 958.5 438C958.828 438 959.137 438.102 959.424 438.306C959.712 438.511 959.925 438.805 960.062 439.187L962.447 447.045H969.806C970.601 447.045 971.129 447.427 971.39 448.191C971.649 448.955 971.45 449.569 970.793 450.033L964.831 454.249L967.175 461.82C967.394 462.584 967.175 463.198 966.517 463.662C965.859 464.126 965.215 464.112 964.584 463.621L958.5 458.996L952.415 463.621Z" fill="#070707"/>
</svg>
