<svg width="170" height="230" viewBox="0 0 170 230" fill="none" xmlns="http://www.w3.org/2000/svg">
<path d="M125 0H45V80H125V0Z" fill="#FF7C00"/>
<path d="M118.296 6.7041H51.7047V73.2953H118.296V6.7041Z" fill="#261300"/>
<path d="M104.959 32.0449H98.6419C98.4792 32.0449 98.3473 32.1777 98.3473 32.3414V58.4359C98.3473 58.5997 98.4792 58.7324 98.6419 58.7324H104.959C105.122 58.7324 105.253 58.5997 105.253 58.4359V32.3414C105.253 32.1777 105.122 32.0449 104.959 32.0449Z" fill="#FF7C00"/>
<path d="M101.8 28.5183C103.827 28.5183 105.47 26.9372 105.47 24.9867C105.47 23.0362 103.827 21.4551 101.8 21.4551C99.7731 21.4551 98.1299 23.0362 98.1299 24.9867C98.1299 26.9372 99.7731 28.5183 101.8 28.5183Z" fill="#FF7C00"/>
<path fill-rule="evenodd" clip-rule="evenodd" d="M84.695 49.4013L87.2848 58.0301C87.4192 58.5399 87.6828 58.6647 88.0395 58.6595H94.6717C95.1835 58.6647 95.2197 58.5086 95.1421 58.1654L84.1884 21.4031C84.1677 21.3355 84.116 21.2887 84.0127 21.2887L74.8268 21.2627C74.465 21.2627 74.4598 21.4499 74.4908 21.8036C74.6045 23.0831 74.5425 23.8009 74.2737 24.8047L64.5761 58.1862C64.4727 58.5034 64.4986 58.6595 64.9121 58.6647L71.1721 58.6595C71.8338 58.6387 71.87 58.4566 71.9837 58.1238L74.1548 49.4013H84.695ZM83.3562 42.6917H75.7521L79.4378 27.6914L83.3562 42.6917Z" fill="#FF7C00"/>
<path d="M69.6539 120L68.9293 117.621H65.2857L64.5611 120H62.2779L65.8052 109.965H68.3961L71.9371 120H69.6539ZM68.4234 115.844L67.6988 113.52C67.6532 113.365 67.5917 113.166 67.5142 112.925C67.4413 112.679 67.3661 112.43 67.2886 112.18C67.2157 111.924 67.1565 111.703 67.1109 111.517C67.0653 111.703 67.0015 111.936 66.9195 112.214C66.842 112.487 66.7668 112.747 66.6939 112.993C66.621 113.239 66.5686 113.415 66.5367 113.52L65.8189 115.844H68.4234ZM75.7376 120.137C74.8854 120.137 74.1904 119.804 73.6526 119.139C73.1194 118.469 72.8528 117.487 72.8528 116.192C72.8528 114.884 73.124 113.896 73.6663 113.226C74.2086 112.551 74.9173 112.214 75.7923 112.214C76.1569 112.214 76.4781 112.264 76.7561 112.364C77.0341 112.465 77.2734 112.599 77.4739 112.768C77.679 112.936 77.8522 113.125 77.9934 113.335H78.0618C78.0345 113.189 78.0003 112.975 77.9593 112.692C77.9228 112.405 77.9046 112.111 77.9046 111.811V109.363H79.9964V120H78.3968L77.9934 119.009H77.9046C77.7724 119.218 77.6061 119.41 77.4055 119.583C77.2096 119.752 76.9749 119.886 76.7014 119.986C76.428 120.087 76.1067 120.137 75.7376 120.137ZM76.469 118.476C77.0387 118.476 77.4397 118.307 77.6721 117.97C77.9091 117.628 78.0345 117.115 78.0481 116.432V116.206C78.0481 115.463 77.9342 114.896 77.7063 114.504C77.4785 114.107 77.0546 113.909 76.4348 113.909C75.9746 113.909 75.6145 114.107 75.3548 114.504C75.095 114.9 74.9651 115.472 74.9651 116.22C74.9651 116.967 75.095 117.53 75.3548 117.908C75.6191 118.286 75.9905 118.476 76.469 118.476ZM89.4023 116.165C89.4023 116.803 89.3158 117.368 89.1426 117.86C88.974 118.353 88.7256 118.77 88.3975 119.111C88.0739 119.449 87.682 119.704 87.2217 119.877C86.766 120.05 86.251 120.137 85.6768 120.137C85.139 120.137 84.6445 120.05 84.1934 119.877C83.7467 119.704 83.3571 119.449 83.0244 119.111C82.6963 118.77 82.4411 118.353 82.2588 117.86C82.0811 117.368 81.9922 116.803 81.9922 116.165C81.9922 115.317 82.1426 114.6 82.4434 114.012C82.7441 113.424 83.1725 112.977 83.7285 112.672C84.2845 112.367 84.9476 112.214 85.7178 112.214C86.4333 112.214 87.0667 112.367 87.6182 112.672C88.1742 112.977 88.6094 113.424 88.9238 114.012C89.2428 114.6 89.4023 115.317 89.4023 116.165ZM84.1182 116.165C84.1182 116.666 84.1729 117.088 84.2822 117.43C84.3916 117.771 84.5625 118.029 84.7949 118.202C85.0273 118.375 85.3304 118.462 85.7041 118.462C86.0732 118.462 86.3717 118.375 86.5996 118.202C86.832 118.029 87.0007 117.771 87.1055 117.43C87.2148 117.088 87.2695 116.666 87.2695 116.165C87.2695 115.659 87.2148 115.24 87.1055 114.907C87.0007 114.57 86.832 114.317 86.5996 114.148C86.3672 113.98 86.0641 113.896 85.6904 113.896C85.139 113.896 84.738 114.085 84.4873 114.463C84.2412 114.841 84.1182 115.409 84.1182 116.165ZM93.49 109.363V111.838C93.49 112.125 93.4808 112.41 93.4626 112.692C93.4489 112.975 93.4307 113.194 93.4079 113.349H93.49C93.6905 113.034 93.9639 112.768 94.3103 112.549C94.6566 112.326 95.1055 112.214 95.657 112.214C96.5137 112.214 97.2087 112.549 97.7419 113.219C98.2751 113.889 98.5417 114.871 98.5417 116.165C98.5417 117.035 98.4187 117.767 98.1726 118.359C97.9265 118.947 97.5824 119.392 97.1404 119.692C96.6983 119.989 96.1856 120.137 95.6023 120.137C95.0417 120.137 94.5997 120.036 94.2761 119.836C93.9525 119.635 93.6905 119.41 93.49 119.159H93.3464L92.9978 120H91.405V109.363H93.49ZM94.987 113.882C94.6224 113.882 94.3331 113.957 94.1189 114.107C93.9047 114.258 93.7474 114.483 93.6472 114.784C93.5515 115.085 93.4991 115.465 93.49 115.926V116.151C93.49 116.894 93.5993 117.464 93.8181 117.86C94.0368 118.252 94.4356 118.448 95.0144 118.448C95.4428 118.448 95.7823 118.25 96.0329 117.854C96.2881 117.457 96.4157 116.885 96.4157 116.138C96.4157 115.39 96.2881 114.827 96.0329 114.449C95.7777 114.071 95.4291 113.882 94.987 113.882ZM103.696 112.214C104.402 112.214 105.011 112.351 105.521 112.624C106.031 112.893 106.426 113.285 106.704 113.8C106.982 114.315 107.121 114.944 107.121 115.687V116.698H102.192C102.215 117.286 102.39 117.749 102.718 118.086C103.051 118.419 103.511 118.585 104.099 118.585C104.587 118.585 105.033 118.535 105.439 118.435C105.845 118.334 106.261 118.184 106.69 117.983V119.597C106.312 119.784 105.915 119.92 105.5 120.007C105.09 120.093 104.591 120.137 104.003 120.137C103.238 120.137 102.559 119.995 101.966 119.713C101.378 119.43 100.916 119 100.579 118.421C100.246 117.842 100.08 117.113 100.08 116.233C100.08 115.34 100.23 114.597 100.531 114.005C100.836 113.408 101.26 112.961 101.802 112.665C102.345 112.364 102.976 112.214 103.696 112.214ZM103.709 113.697C103.304 113.697 102.967 113.827 102.698 114.087C102.433 114.347 102.281 114.755 102.24 115.311H105.165C105.161 115.001 105.104 114.725 104.995 114.483C104.89 114.242 104.73 114.05 104.516 113.909C104.306 113.768 104.038 113.697 103.709 113.697ZM49.1742 139V129.006H51.2934V139H49.1742ZM56.0099 139H53.9249V128.363H56.0099V139ZM60.5692 139H58.4842V128.363H60.5692V139ZM70.0572 131.357V139H68.4576L68.1773 138.022H68.0679C67.9039 138.282 67.6988 138.494 67.4527 138.658C67.2066 138.822 66.9354 138.943 66.6392 139.021C66.343 139.098 66.0354 139.137 65.7164 139.137C65.1695 139.137 64.6933 139.041 64.2877 138.85C63.8821 138.654 63.5653 138.351 63.3375 137.94C63.1142 137.53 63.0025 136.997 63.0025 136.341V131.357H65.0875V135.821C65.0875 136.368 65.1854 136.781 65.3814 137.059C65.5774 137.337 65.8895 137.476 66.3179 137.476C66.7418 137.476 67.0744 137.38 67.316 137.188C67.5575 136.993 67.7261 136.708 67.8218 136.334C67.9221 135.956 67.9722 135.495 67.9722 134.953V131.357H70.0572ZM77.8567 136.73C77.8567 137.25 77.7337 137.69 77.4876 138.05C77.246 138.405 76.8837 138.676 76.4007 138.863C75.9176 139.046 75.316 139.137 74.596 139.137C74.0628 139.137 73.6048 139.103 73.222 139.034C72.8437 138.966 72.4609 138.852 72.0735 138.692V136.97C72.4882 137.157 72.9326 137.312 73.4065 137.435C73.885 137.553 74.3043 137.612 74.6643 137.612C75.0699 137.612 75.3593 137.553 75.5325 137.435C75.7102 137.312 75.7991 137.152 75.7991 136.956C75.7991 136.828 75.7626 136.715 75.6897 136.614C75.6214 136.509 75.471 136.393 75.2386 136.266C75.0061 136.133 74.6415 135.963 74.1448 135.753C73.6663 135.552 73.2721 135.35 72.9622 135.145C72.6568 134.939 72.429 134.698 72.2786 134.42C72.1328 134.137 72.0598 133.78 72.0598 133.347C72.0598 132.64 72.3333 132.109 72.8802 131.754C73.4316 131.394 74.1676 131.214 75.0882 131.214C75.5621 131.214 76.0133 131.262 76.4417 131.357C76.8746 131.453 77.319 131.606 77.7747 131.815L77.1458 133.319C76.7675 133.155 76.4098 133.021 76.0725 132.916C75.7399 132.811 75.4003 132.759 75.054 132.759C74.7486 132.759 74.5185 132.8 74.3636 132.882C74.2086 132.964 74.1311 133.089 74.1311 133.258C74.1311 133.381 74.1699 133.49 74.2473 133.586C74.3294 133.682 74.4843 133.789 74.7122 133.907C74.9446 134.021 75.2841 134.169 75.7307 134.352C76.1637 134.529 76.5397 134.716 76.8587 134.912C77.1777 135.104 77.4238 135.343 77.597 135.63C77.7701 135.912 77.8567 136.279 77.8567 136.73ZM82.9834 137.476C83.2113 137.476 83.4323 137.453 83.6465 137.407C83.8652 137.362 84.0817 137.305 84.2959 137.236V138.788C84.0726 138.888 83.7946 138.97 83.4619 139.034C83.1338 139.103 82.7738 139.137 82.3818 139.137C81.9261 139.137 81.5159 139.064 81.1514 138.918C80.7913 138.768 80.5065 138.51 80.2969 138.146C80.0918 137.776 79.9893 137.264 79.9893 136.607V132.923H78.9912V132.041L80.1396 131.344L80.7412 129.73H82.0742V131.357H84.2139V132.923H82.0742V136.607C82.0742 136.899 82.1562 137.118 82.3203 137.264C82.4889 137.405 82.71 137.476 82.9834 137.476ZM90.3933 131.214C90.4981 131.214 90.6189 131.221 90.7556 131.234C90.8969 131.243 91.0108 131.257 91.0974 131.275L90.9402 133.23C90.8718 133.208 90.7738 133.192 90.6462 133.183C90.5232 133.169 90.4161 133.162 90.3249 133.162C90.056 133.162 89.794 133.196 89.5388 133.265C89.2881 133.333 89.0626 133.445 88.862 133.6C88.6615 133.75 88.502 133.951 88.3835 134.201C88.2696 134.447 88.2126 134.75 88.2126 135.11V139H86.1277V131.357H87.7068L88.0144 132.643H88.1169C88.2673 132.383 88.4542 132.146 88.6775 131.932C88.9053 131.713 89.1628 131.54 89.4499 131.412C89.7416 131.28 90.056 131.214 90.3933 131.214ZM95.8959 131.2C96.9213 131.2 97.7075 131.424 98.2543 131.87C98.8012 132.317 99.0746 132.996 99.0746 133.907V139H97.6186L97.2153 137.961H97.1606C96.9418 138.234 96.7185 138.458 96.4907 138.631C96.2628 138.804 96.0008 138.932 95.7045 139.014C95.4083 139.096 95.0483 139.137 94.6245 139.137C94.1733 139.137 93.7677 139.05 93.4077 138.877C93.0522 138.704 92.7719 138.439 92.5668 138.084C92.3618 137.724 92.2592 137.268 92.2592 136.717C92.2592 135.906 92.544 135.309 93.1137 134.926C93.6834 134.538 94.5379 134.324 95.6772 134.283L97.0034 134.242V133.907C97.0034 133.506 96.8985 133.212 96.6889 133.025C96.4793 132.839 96.1876 132.745 95.8139 132.745C95.4448 132.745 95.0825 132.798 94.727 132.902C94.3715 133.007 94.0161 133.139 93.6606 133.299L92.9702 131.891C93.3758 131.676 93.8292 131.508 94.3305 131.385C94.8364 131.262 95.3582 131.2 95.8959 131.2ZM97.0034 135.459L96.1967 135.486C95.5222 135.505 95.0528 135.625 94.7885 135.849C94.5287 136.072 94.3989 136.366 94.3989 136.73C94.3989 137.049 94.4923 137.277 94.6791 137.414C94.866 137.546 95.1098 137.612 95.4106 137.612C95.8572 137.612 96.2332 137.48 96.5385 137.216C96.8484 136.951 97.0034 136.576 97.0034 136.088V135.459ZM104.728 137.476C104.956 137.476 105.177 137.453 105.391 137.407C105.61 137.362 105.826 137.305 106.04 137.236V138.788C105.817 138.888 105.539 138.97 105.206 139.034C104.878 139.103 104.518 139.137 104.126 139.137C103.67 139.137 103.26 139.064 102.896 138.918C102.536 138.768 102.251 138.51 102.041 138.146C101.836 137.776 101.734 137.264 101.734 136.607V132.923H100.736V132.041L101.884 131.344L102.486 129.73H103.819V131.357H105.958V132.923H103.819V136.607C103.819 136.899 103.901 137.118 104.065 137.264C104.233 137.405 104.454 137.476 104.728 137.476ZM114.817 135.165C114.817 135.803 114.731 136.368 114.557 136.86C114.389 137.353 114.141 137.77 113.812 138.111C113.489 138.449 113.097 138.704 112.637 138.877C112.181 139.05 111.666 139.137 111.092 139.137C110.554 139.137 110.059 139.05 109.608 138.877C109.162 138.704 108.772 138.449 108.439 138.111C108.111 137.77 107.856 137.353 107.674 136.86C107.496 136.368 107.407 135.803 107.407 135.165C107.407 134.317 107.557 133.6 107.858 133.012C108.159 132.424 108.587 131.977 109.143 131.672C109.699 131.367 110.363 131.214 111.133 131.214C111.848 131.214 112.482 131.367 113.033 131.672C113.589 131.977 114.024 132.424 114.339 133.012C114.658 133.6 114.817 134.317 114.817 135.165ZM109.533 135.165C109.533 135.666 109.588 136.088 109.697 136.43C109.807 136.771 109.977 137.029 110.21 137.202C110.442 137.375 110.745 137.462 111.119 137.462C111.488 137.462 111.787 137.375 112.015 137.202C112.247 137.029 112.416 136.771 112.52 136.43C112.63 136.088 112.684 135.666 112.684 135.165C112.684 134.659 112.63 134.24 112.52 133.907C112.416 133.57 112.247 133.317 112.015 133.148C111.782 132.98 111.479 132.896 111.105 132.896C110.554 132.896 110.153 133.085 109.902 133.463C109.656 133.841 109.533 134.409 109.533 135.165ZM121.086 131.214C121.19 131.214 121.311 131.221 121.448 131.234C121.589 131.243 121.703 131.257 121.79 131.275L121.632 133.23C121.564 133.208 121.466 133.192 121.338 133.183C121.215 133.169 121.108 133.162 121.017 133.162C120.748 133.162 120.486 133.196 120.231 133.265C119.98 133.333 119.755 133.445 119.554 133.6C119.354 133.75 119.194 133.951 119.076 134.201C118.962 134.447 118.905 134.75 118.905 135.11V139H116.82V131.357H118.399L118.707 132.643H118.809C118.96 132.383 119.146 132.146 119.37 131.932C119.598 131.713 119.855 131.54 120.142 131.412C120.434 131.28 120.748 131.214 121.086 131.214Z" fill="#828282"/>
<path d="M6.91471 228.621C6.28429 229.112 5.64017 229.126 4.98235 228.662C4.32452 228.198 4.10525 227.584 4.32452 226.82L6.66802 219.249L0.706493 215.033C0.0486696 214.569 -0.149774 213.955 0.111163 213.191C0.371003 212.427 0.898359 212.045 1.69323 212.045H9.05264L11.4372 204.187C11.5743 203.805 11.787 203.511 12.0753 203.306C12.3626 203.102 12.6707 203 12.9996 203C13.3285 203 13.6366 203.102 13.9238 203.306C14.2122 203.511 14.4249 203.805 14.5619 204.187L16.9465 212.045H24.3059C25.1008 212.045 25.6287 212.427 25.8896 213.191C26.1495 213.955 25.9505 214.569 25.2927 215.033L19.3311 219.249L21.6746 226.82C21.8939 227.584 21.6746 228.198 21.0168 228.662C20.359 229.126 19.7149 229.112 19.0844 228.621L12.9996 223.996L6.91471 228.621Z" fill="#070707"/>
<path d="M42.9147 228.621C42.2843 229.112 41.6402 229.126 40.9823 228.662C40.3245 228.198 40.1053 227.584 40.3245 226.82L42.668 219.249L36.7065 215.033C36.0487 214.569 35.8502 213.955 36.1112 213.191C36.371 212.427 36.8984 212.045 37.6932 212.045H45.0526L47.4372 204.187C47.5743 203.805 47.787 203.511 48.0753 203.306C48.3626 203.102 48.6707 203 48.9996 203C49.3285 203 49.6366 203.102 49.9238 203.306C50.2122 203.511 50.4249 203.805 50.5619 204.187L52.9465 212.045H60.3059C61.1008 212.045 61.6287 212.427 61.8896 213.191C62.1495 213.955 61.9505 214.569 61.2927 215.033L55.3311 219.249L57.6746 226.82C57.8939 227.584 57.6746 228.198 57.0168 228.662C56.359 229.126 55.7149 229.112 55.0844 228.621L48.9996 223.996L42.9147 228.621Z" fill="#070707"/>
<path d="M78.9147 228.621C78.2843 229.112 77.6402 229.126 76.9823 228.662C76.3245 228.198 76.1053 227.584 76.3245 226.82L78.668 219.249L72.7065 215.033C72.0487 214.569 71.8502 213.955 72.1112 213.191C72.371 212.427 72.8984 212.045 73.6932 212.045H81.0526L83.4372 204.187C83.5743 203.805 83.787 203.511 84.0753 203.306C84.3626 203.102 84.6707 203 84.9996 203C85.3285 203 85.6366 203.102 85.9238 203.306C86.2122 203.511 86.4249 203.805 86.5619 204.187L88.9465 212.045H96.3059C97.1008 212.045 97.6287 212.427 97.8896 213.191C98.1495 213.955 97.9505 214.569 97.2927 215.033L91.3311 219.249L93.6746 226.82C93.8939 227.584 93.6746 228.198 93.0168 228.662C92.359 229.126 91.7149 229.112 91.0844 228.621L84.9996 223.996L78.9147 228.621Z" fill="#070707"/>
<path d="M114.915 228.621C114.284 229.112 113.64 229.126 112.982 228.662C112.325 228.198 112.105 227.584 112.325 226.82L114.668 219.249L108.706 215.033C108.049 214.569 107.85 213.955 108.111 213.191C108.371 212.427 108.898 212.045 109.693 212.045H117.053L119.437 204.187C119.574 203.805 119.787 203.511 120.075 203.306C120.363 203.102 120.671 203 121 203C121.328 203 121.637 203.102 121.924 203.306C122.212 203.511 122.425 203.805 122.562 204.187L124.947 212.045H132.306C133.101 212.045 133.629 212.427 133.89 213.191C134.149 213.955 133.95 214.569 133.293 215.033L127.331 219.249L129.675 226.82C129.894 227.584 129.675 228.198 129.017 228.662C128.359 229.126 127.715 229.112 127.084 228.621L121 223.996L114.915 228.621Z" fill="#E5E5E5"/>
<path d="M150.915 228.621C150.284 229.112 149.64 229.126 148.982 228.662C148.325 228.198 148.105 227.584 148.325 226.82L150.668 219.249L144.706 215.033C144.049 214.569 143.85 213.955 144.111 213.191C144.371 212.427 144.898 212.045 145.693 212.045H153.053L155.437 204.187C155.574 203.805 155.787 203.511 156.075 203.306C156.363 203.102 156.671 203 157 203C157.328 203 157.637 203.102 157.924 203.306C158.212 203.511 158.425 203.805 158.562 204.187L160.947 212.045H168.306C169.101 212.045 169.629 212.427 169.89 213.191C170.149 213.955 169.95 214.569 169.293 215.033L163.331 219.249L165.675 226.82C165.894 227.584 165.675 228.198 165.017 228.662C164.359 229.126 163.715 229.112 163.084 228.621L157 223.996L150.915 228.621Z" fill="#E5E5E5"/>
</svg>
