<svg width="170" height="230" viewBox="0 0 170 230" fill="none" xmlns="http://www.w3.org/2000/svg">
<path d="M125 0H45V80H125V0Z" fill="#BC85F3"/>
<path d="M118.296 6.7041H51.7047V73.2953H118.296V6.7041Z" fill="#252653"/>
<path fill-rule="evenodd" clip-rule="evenodd" d="M77.1632 49.1828L79.9495 58.4514H87.7758L76.6618 21.1482C76.6411 21.0806 76.5894 21.0338 76.4809 21.0338L67.2847 21.0078C66.928 21.0078 66.9177 21.1951 66.9487 21.5487C67.0624 22.8334 67.0004 23.5512 66.7368 24.555L56.8841 58.4566L64.3072 58.4462L66.6179 49.1776L77.1632 49.1828ZM75.8296 42.4629H68.21L71.9061 27.4469L75.8296 42.4629ZM96.9048 46.1713L111.27 46.1921C112.175 45.0271 112.34 42.8373 112.314 41.4018C112.216 35.5764 108.381 30.0007 101.454 29.9643C89.8228 29.8967 87.6207 44.6942 91.5804 53.2294C92.8262 55.9132 95.3281 57.6192 98.2643 58.4306C99.6031 58.7999 101.025 58.9871 102.462 58.9923C105.305 59.0027 108.195 58.311 110.516 56.9795C110.552 56.9587 110.614 56.9587 110.619 56.917V56.7506L110.614 51.9291C110.614 51.7106 110.448 51.5858 110.2 51.6638C107.264 52.5532 97.3183 55.3931 96.8582 46.4418C96.8531 46.3742 96.8376 46.1713 96.9048 46.1713ZM104.106 41.3394H96.791C96.8272 37.4281 98.6106 35.2071 101.366 35.1967C103.868 35.1863 105.46 36.934 105.537 41.2458C105.537 41.4434 105.537 41.3394 105.537 41.3394H104.106Z" fill="#BC85F3"/>
<path d="M69.6539 120L68.9293 117.621H65.2857L64.5611 120H62.2779L65.8052 109.965H68.3961L71.9371 120H69.6539ZM68.4234 115.844L67.6988 113.52C67.6532 113.365 67.5917 113.166 67.5142 112.925C67.4413 112.679 67.3661 112.43 67.2886 112.18C67.2157 111.924 67.1565 111.703 67.1109 111.517C67.0653 111.703 67.0015 111.936 66.9195 112.214C66.842 112.487 66.7668 112.747 66.6939 112.993C66.621 113.239 66.5686 113.415 66.5367 113.52L65.8189 115.844H68.4234ZM75.7376 120.137C74.8854 120.137 74.1904 119.804 73.6526 119.139C73.1194 118.469 72.8528 117.487 72.8528 116.192C72.8528 114.884 73.124 113.896 73.6663 113.226C74.2086 112.551 74.9173 112.214 75.7923 112.214C76.1569 112.214 76.4781 112.264 76.7561 112.364C77.0341 112.465 77.2734 112.599 77.4739 112.768C77.679 112.936 77.8522 113.125 77.9934 113.335H78.0618C78.0345 113.189 78.0003 112.975 77.9593 112.692C77.9228 112.405 77.9046 112.111 77.9046 111.811V109.363H79.9964V120H78.3968L77.9934 119.009H77.9046C77.7724 119.218 77.6061 119.41 77.4055 119.583C77.2096 119.752 76.9749 119.886 76.7014 119.986C76.428 120.087 76.1067 120.137 75.7376 120.137ZM76.469 118.476C77.0387 118.476 77.4397 118.307 77.6721 117.97C77.9091 117.628 78.0345 117.115 78.0481 116.432V116.206C78.0481 115.463 77.9342 114.896 77.7063 114.504C77.4785 114.107 77.0546 113.909 76.4348 113.909C75.9746 113.909 75.6145 114.107 75.3548 114.504C75.095 114.9 74.9651 115.472 74.9651 116.22C74.9651 116.967 75.095 117.53 75.3548 117.908C75.6191 118.286 75.9905 118.476 76.469 118.476ZM89.4023 116.165C89.4023 116.803 89.3158 117.368 89.1426 117.86C88.974 118.353 88.7256 118.77 88.3975 119.111C88.0739 119.449 87.682 119.704 87.2217 119.877C86.766 120.05 86.251 120.137 85.6768 120.137C85.139 120.137 84.6445 120.05 84.1934 119.877C83.7467 119.704 83.3571 119.449 83.0244 119.111C82.6963 118.77 82.4411 118.353 82.2588 117.86C82.0811 117.368 81.9922 116.803 81.9922 116.165C81.9922 115.317 82.1426 114.6 82.4434 114.012C82.7441 113.424 83.1725 112.977 83.7285 112.672C84.2845 112.367 84.9476 112.214 85.7178 112.214C86.4333 112.214 87.0667 112.367 87.6182 112.672C88.1742 112.977 88.6094 113.424 88.9238 114.012C89.2428 114.6 89.4023 115.317 89.4023 116.165ZM84.1182 116.165C84.1182 116.666 84.1729 117.088 84.2822 117.43C84.3916 117.771 84.5625 118.029 84.7949 118.202C85.0273 118.375 85.3304 118.462 85.7041 118.462C86.0732 118.462 86.3717 118.375 86.5996 118.202C86.832 118.029 87.0007 117.771 87.1055 117.43C87.2148 117.088 87.2695 116.666 87.2695 116.165C87.2695 115.659 87.2148 115.24 87.1055 114.907C87.0007 114.57 86.832 114.317 86.5996 114.148C86.3672 113.98 86.0641 113.896 85.6904 113.896C85.139 113.896 84.738 114.085 84.4873 114.463C84.2412 114.841 84.1182 115.409 84.1182 116.165ZM93.49 109.363V111.838C93.49 112.125 93.4808 112.41 93.4626 112.692C93.4489 112.975 93.4307 113.194 93.4079 113.349H93.49C93.6905 113.034 93.9639 112.768 94.3103 112.549C94.6566 112.326 95.1055 112.214 95.657 112.214C96.5137 112.214 97.2087 112.549 97.7419 113.219C98.2751 113.889 98.5417 114.871 98.5417 116.165C98.5417 117.035 98.4187 117.767 98.1726 118.359C97.9265 118.947 97.5824 119.392 97.1404 119.692C96.6983 119.989 96.1856 120.137 95.6023 120.137C95.0417 120.137 94.5997 120.036 94.2761 119.836C93.9525 119.635 93.6905 119.41 93.49 119.159H93.3464L92.9978 120H91.405V109.363H93.49ZM94.987 113.882C94.6224 113.882 94.3331 113.957 94.1189 114.107C93.9047 114.258 93.7474 114.483 93.6472 114.784C93.5515 115.085 93.4991 115.465 93.49 115.926V116.151C93.49 116.894 93.5993 117.464 93.8181 117.86C94.0368 118.252 94.4356 118.448 95.0144 118.448C95.4428 118.448 95.7823 118.25 96.0329 117.854C96.2881 117.457 96.4157 116.885 96.4157 116.138C96.4157 115.39 96.2881 114.827 96.0329 114.449C95.7777 114.071 95.4291 113.882 94.987 113.882ZM103.696 112.214C104.402 112.214 105.011 112.351 105.521 112.624C106.031 112.893 106.426 113.285 106.704 113.8C106.982 114.315 107.121 114.944 107.121 115.687V116.698H102.192C102.215 117.286 102.39 117.749 102.718 118.086C103.051 118.419 103.511 118.585 104.099 118.585C104.587 118.585 105.033 118.535 105.439 118.435C105.845 118.334 106.261 118.184 106.69 117.983V119.597C106.312 119.784 105.915 119.92 105.5 120.007C105.09 120.093 104.591 120.137 104.003 120.137C103.238 120.137 102.559 119.995 101.966 119.713C101.378 119.43 100.916 119 100.579 118.421C100.246 117.842 100.08 117.113 100.08 116.233C100.08 115.34 100.23 114.597 100.531 114.005C100.836 113.408 101.26 112.961 101.802 112.665C102.345 112.364 102.976 112.214 103.696 112.214ZM103.709 113.697C103.304 113.697 102.967 113.827 102.698 114.087C102.433 114.347 102.281 114.755 102.24 115.311H105.165C105.161 115.001 105.104 114.725 104.995 114.483C104.89 114.242 104.73 114.05 104.516 113.909C104.306 113.768 104.038 113.697 103.709 113.697ZM47.5098 139L46.7852 136.621H43.1416L42.417 139H40.1338L43.6612 128.965H46.252L49.793 139H47.5098ZM46.2793 134.844L45.5547 132.52C45.5092 132.365 45.4476 132.166 45.3702 131.925C45.2972 131.679 45.222 131.43 45.1446 131.18C45.0717 130.924 45.0124 130.703 44.9668 130.517C44.9213 130.703 44.8575 130.936 44.7754 131.214C44.698 131.487 44.6228 131.747 44.5498 131.993C44.4769 132.239 44.4245 132.415 44.3926 132.52L43.6748 134.844H46.2793ZM55.3982 132.923H53.5935V139H51.5086V132.923H50.3601V131.918L51.5086 131.357V130.797C51.5086 130.145 51.6179 129.639 51.8367 129.279C52.06 128.915 52.3722 128.66 52.7732 128.514C53.1788 128.363 53.6573 128.288 54.2087 128.288C54.6143 128.288 54.9835 128.322 55.3162 128.391C55.6489 128.454 55.92 128.527 56.1296 128.609L55.5964 130.141C55.4369 130.09 55.2638 130.045 55.0769 130.004C54.8901 129.963 54.6759 129.942 54.4343 129.942C54.1427 129.942 53.9285 130.031 53.7918 130.209C53.6596 130.382 53.5935 130.605 53.5935 130.879V131.357H55.3982V132.923ZM60.1011 137.476C60.3289 137.476 60.5499 137.453 60.7641 137.407C60.9829 137.362 61.1994 137.305 61.4136 137.236V138.788C61.1902 138.888 60.9123 138.97 60.5796 139.034C60.2514 139.103 59.8914 139.137 59.4995 139.137C59.0438 139.137 58.6336 139.064 58.269 138.918C57.909 138.768 57.6242 138.51 57.4145 138.146C57.2095 137.776 57.1069 137.264 57.1069 136.607V132.923H56.1089V132.041L57.2573 131.344L57.8589 129.73H59.1919V131.357H61.3315V132.923H59.1919V136.607C59.1919 136.899 59.2739 137.118 59.438 137.264C59.6066 137.405 59.8276 137.476 60.1011 137.476ZM66.3967 131.214C67.1031 131.214 67.7115 131.351 68.2219 131.624C68.7323 131.893 69.1265 132.285 69.4045 132.8C69.6825 133.315 69.8215 133.944 69.8215 134.687V135.698H64.8928C64.9156 136.286 65.091 136.749 65.4191 137.086C65.7518 137.419 66.2121 137.585 66.8 137.585C67.2876 137.585 67.7342 137.535 68.1398 137.435C68.5454 137.334 68.9624 137.184 69.3908 136.983V138.597C69.0126 138.784 68.6161 138.92 68.2014 139.007C67.7912 139.093 67.2922 139.137 66.7043 139.137C65.9387 139.137 65.2596 138.995 64.6672 138.713C64.0793 138.43 63.6167 138 63.2795 137.421C62.9468 136.842 62.7805 136.113 62.7805 135.233C62.7805 134.34 62.9309 133.597 63.2316 133.005C63.537 132.408 63.9608 131.961 64.5031 131.665C65.0454 131.364 65.6766 131.214 66.3967 131.214ZM66.4104 132.697C66.0048 132.697 65.6675 132.827 65.3986 133.087C65.1343 133.347 64.9816 133.755 64.9406 134.311H67.8664C67.8618 134.001 67.8049 133.725 67.6955 133.483C67.5907 133.242 67.4312 133.05 67.217 132.909C67.0074 132.768 66.7385 132.697 66.4104 132.697ZM76.0624 131.214C76.1672 131.214 76.288 131.221 76.4247 131.234C76.566 131.243 76.6799 131.257 76.7665 131.275L76.6093 133.23C76.5409 133.208 76.443 133.192 76.3154 133.183C76.1923 133.169 76.0852 133.162 75.9941 133.162C75.7252 133.162 75.4631 133.196 75.2079 133.265C74.9573 133.333 74.7317 133.445 74.5312 133.6C74.3307 133.75 74.1711 133.951 74.0527 134.201C73.9387 134.447 73.8818 134.75 73.8818 135.11V139H71.7968V131.357H73.3759L73.6835 132.643H73.7861C73.9364 132.383 74.1233 132.146 74.3466 131.932C74.5745 131.713 74.832 131.54 75.1191 131.412C75.4107 131.28 75.7252 131.214 76.0624 131.214ZM88.2709 139H82.515V129.006H88.2709V130.742H84.6341V132.937H88.0179V134.673H84.6341V137.25H88.2709V139ZM94.7032 132.923H92.8985V139H90.8136V132.923H89.6651V131.918L90.8136 131.357V130.797C90.8136 130.145 90.9229 129.639 91.1417 129.279C91.365 128.915 91.6772 128.66 92.0782 128.514C92.4838 128.363 92.9623 128.288 93.5137 128.288C93.9193 128.288 94.2885 128.322 94.6212 128.391C94.9539 128.454 95.225 128.527 95.4346 128.609L94.9014 130.141C94.7419 130.09 94.5688 130.045 94.3819 130.004C94.1951 129.963 93.9809 129.942 93.7393 129.942C93.4477 129.942 93.2335 130.031 93.0968 130.209C92.9646 130.382 92.8985 130.605 92.8985 130.879V131.357H94.7032V132.923ZM100.124 132.923H98.3194V139H96.2345V132.923H95.086V131.918L96.2345 131.357V130.797C96.2345 130.145 96.3438 129.639 96.5626 129.279C96.7859 128.915 97.0981 128.66 97.4991 128.514C97.9047 128.363 98.3832 128.288 98.9346 128.288C99.3402 128.288 99.7094 128.322 100.042 128.391C100.375 128.454 100.646 128.527 100.856 128.609L100.322 130.141C100.163 130.09 99.9897 130.045 99.8028 130.004C99.616 129.963 99.4018 129.942 99.1602 129.942C98.8686 129.942 98.6544 130.031 98.5177 130.209C98.3855 130.382 98.3194 130.605 98.3194 130.879V131.357H100.124V132.923ZM104.752 131.214C105.458 131.214 106.067 131.351 106.577 131.624C107.087 131.893 107.482 132.285 107.76 132.8C108.038 133.315 108.177 133.944 108.177 134.687V135.698H103.248C103.271 136.286 103.446 136.749 103.774 137.086C104.107 137.419 104.567 137.585 105.155 137.585C105.643 137.585 106.089 137.535 106.495 137.435C106.901 137.334 107.318 137.184 107.746 136.983V138.597C107.368 138.784 106.971 138.92 106.556 139.007C106.146 139.093 105.647 139.137 105.059 139.137C104.294 139.137 103.615 138.995 103.022 138.713C102.434 138.43 101.972 138 101.635 137.421C101.302 136.842 101.136 136.113 101.136 135.233C101.136 134.34 101.286 133.597 101.587 133.005C101.892 132.408 102.316 131.961 102.858 131.665C103.401 131.364 104.032 131.214 104.752 131.214ZM104.765 132.697C104.36 132.697 104.023 132.827 103.754 133.087C103.489 133.347 103.337 133.755 103.296 134.311H106.221C106.217 134.001 106.16 133.725 106.051 133.483C105.946 133.242 105.786 133.05 105.572 132.909C105.362 132.768 105.094 132.697 104.765 132.697ZM113.255 139.137C112.499 139.137 111.854 139 111.321 138.727C110.788 138.449 110.382 138.02 110.104 137.441C109.826 136.863 109.687 136.122 109.687 135.22C109.687 134.285 109.844 133.524 110.159 132.937C110.478 132.344 110.917 131.909 111.478 131.631C112.043 131.353 112.697 131.214 113.44 131.214C113.969 131.214 114.424 131.266 114.807 131.371C115.195 131.471 115.532 131.592 115.819 131.733L115.204 133.347C114.876 133.215 114.57 133.107 114.288 133.025C114.005 132.939 113.723 132.896 113.44 132.896C113.075 132.896 112.772 132.982 112.531 133.155C112.289 133.324 112.109 133.579 111.991 133.921C111.872 134.263 111.813 134.691 111.813 135.206C111.813 135.712 111.877 136.131 112.004 136.464C112.132 136.797 112.317 137.045 112.558 137.209C112.8 137.368 113.094 137.448 113.44 137.448C113.873 137.448 114.258 137.391 114.595 137.277C114.932 137.159 115.261 136.995 115.58 136.785V138.569C115.261 138.77 114.926 138.913 114.575 139C114.228 139.091 113.789 139.137 113.255 139.137ZM120.857 137.476C121.085 137.476 121.306 137.453 121.52 137.407C121.739 137.362 121.955 137.305 122.169 137.236V138.788C121.946 138.888 121.668 138.97 121.335 139.034C121.007 139.103 120.647 139.137 120.255 139.137C119.799 139.137 119.389 139.064 119.025 138.918C118.665 138.768 118.38 138.51 118.17 138.146C117.965 137.776 117.863 137.264 117.863 136.607V132.923H116.864V132.041L118.013 131.344L118.614 129.73H119.948V131.357H122.087V132.923H119.948V136.607C119.948 136.899 120.03 137.118 120.194 137.264C120.362 137.405 120.583 137.476 120.857 137.476ZM129.333 136.73C129.333 137.25 129.21 137.69 128.964 138.05C128.722 138.405 128.36 138.676 127.877 138.863C127.394 139.046 126.792 139.137 126.072 139.137C125.539 139.137 125.081 139.103 124.698 139.034C124.32 138.966 123.937 138.852 123.55 138.692V136.97C123.964 137.157 124.409 137.312 124.883 137.435C125.361 137.553 125.781 137.612 126.141 137.612C126.546 137.612 126.836 137.553 127.009 137.435C127.186 137.312 127.275 137.152 127.275 136.956C127.275 136.828 127.239 136.715 127.166 136.614C127.098 136.509 126.947 136.393 126.715 136.266C126.482 136.133 126.118 135.963 125.621 135.753C125.143 135.552 124.748 135.35 124.438 135.145C124.133 134.939 123.905 134.698 123.755 134.42C123.609 134.137 123.536 133.78 123.536 133.347C123.536 132.64 123.81 132.109 124.356 131.754C124.908 131.394 125.644 131.214 126.564 131.214C127.038 131.214 127.49 131.262 127.918 131.357C128.351 131.453 128.795 131.606 129.251 131.815L128.622 133.319C128.244 133.155 127.886 133.021 127.549 132.916C127.216 132.811 126.877 132.759 126.53 132.759C126.225 132.759 125.995 132.8 125.84 132.882C125.685 132.964 125.607 133.089 125.607 133.258C125.607 133.381 125.646 133.49 125.724 133.586C125.806 133.682 125.961 133.789 126.188 133.907C126.421 134.021 126.76 134.169 127.207 134.352C127.64 134.529 128.016 134.716 128.335 134.912C128.654 135.104 128.9 135.343 129.073 135.63C129.246 135.912 129.333 136.279 129.333 136.73Z" fill="#828282"/>
<path d="M6.91471 228.621C6.28429 229.112 5.64017 229.126 4.98235 228.662C4.32452 228.198 4.10525 227.584 4.32452 226.82L6.66802 219.249L0.706493 215.033C0.0486696 214.569 -0.149774 213.955 0.111163 213.191C0.371003 212.427 0.898359 212.045 1.69323 212.045H9.05264L11.4372 204.187C11.5743 203.805 11.787 203.511 12.0753 203.306C12.3626 203.102 12.6707 203 12.9996 203C13.3285 203 13.6366 203.102 13.9238 203.306C14.2122 203.511 14.4249 203.805 14.5619 204.187L16.9465 212.045H24.3059C25.1008 212.045 25.6287 212.427 25.8896 213.191C26.1495 213.955 25.9505 214.569 25.2927 215.033L19.3311 219.249L21.6746 226.82C21.8939 227.584 21.6746 228.198 21.0168 228.662C20.359 229.126 19.7149 229.112 19.0844 228.621L12.9996 223.996L6.91471 228.621Z" fill="#070707"/>
<path d="M42.9147 228.621C42.2843 229.112 41.6402 229.126 40.9823 228.662C40.3245 228.198 40.1053 227.584 40.3245 226.82L42.668 219.249L36.7065 215.033C36.0487 214.569 35.8502 213.955 36.1112 213.191C36.371 212.427 36.8984 212.045 37.6932 212.045H45.0526L47.4372 204.187C47.5743 203.805 47.787 203.511 48.0753 203.306C48.3626 203.102 48.6707 203 48.9996 203C49.3285 203 49.6366 203.102 49.9238 203.306C50.2122 203.511 50.4249 203.805 50.5619 204.187L52.9465 212.045H60.3059C61.1008 212.045 61.6287 212.427 61.8896 213.191C62.1495 213.955 61.9505 214.569 61.2927 215.033L55.3311 219.249L57.6746 226.82C57.8939 227.584 57.6746 228.198 57.0168 228.662C56.359 229.126 55.7149 229.112 55.0844 228.621L48.9996 223.996L42.9147 228.621Z" fill="#070707"/>
<path d="M78.9147 228.621C78.2843 229.112 77.6402 229.126 76.9823 228.662C76.3245 228.198 76.1053 227.584 76.3245 226.82L78.668 219.249L72.7065 215.033C72.0487 214.569 71.8502 213.955 72.1112 213.191C72.371 212.427 72.8984 212.045 73.6932 212.045H81.0526L83.4372 204.187C83.5743 203.805 83.787 203.511 84.0753 203.306C84.3626 203.102 84.6707 203 84.9996 203C85.3285 203 85.6366 203.102 85.9238 203.306C86.2122 203.511 86.4249 203.805 86.5619 204.187L88.9465 212.045H96.3059C97.1008 212.045 97.6287 212.427 97.8896 213.191C98.1495 213.955 97.9505 214.569 97.2927 215.033L91.3311 219.249L93.6746 226.82C93.8939 227.584 93.6746 228.198 93.0168 228.662C92.359 229.126 91.7149 229.112 91.0844 228.621L84.9996 223.996L78.9147 228.621Z" fill="#070707"/>
<path d="M114.915 228.621C114.284 229.112 113.64 229.126 112.982 228.662C112.325 228.198 112.105 227.584 112.325 226.82L114.668 219.249L108.706 215.033C108.049 214.569 107.85 213.955 108.111 213.191C108.371 212.427 108.898 212.045 109.693 212.045H117.053L119.437 204.187C119.574 203.805 119.787 203.511 120.075 203.306C120.363 203.102 120.671 203 121 203C121.328 203 121.637 203.102 121.924 203.306C122.212 203.511 122.425 203.805 122.562 204.187L124.947 212.045H132.306C133.101 212.045 133.629 212.427 133.89 213.191C134.149 213.955 133.95 214.569 133.293 215.033L127.331 219.249L129.675 226.82C129.894 227.584 129.675 228.198 129.017 228.662C128.359 229.126 127.715 229.112 127.084 228.621L121 223.996L114.915 228.621Z" fill="#070707"/>
<path d="M150.915 228.621C150.284 229.112 149.64 229.126 148.982 228.662C148.325 228.198 148.105 227.584 148.325 226.82L150.668 219.249L144.706 215.033C144.049 214.569 143.85 213.955 144.111 213.191C144.371 212.427 144.898 212.045 145.693 212.045H153.053L155.437 204.187C155.574 203.805 155.787 203.511 156.075 203.306C156.363 203.102 156.671 203 157 203C157.328 203 157.637 203.102 157.924 203.306C158.212 203.511 158.425 203.805 158.562 204.187L160.947 212.045H168.306C169.101 212.045 169.629 212.427 169.89 213.191C170.149 213.955 169.95 214.569 169.293 215.033L163.331 219.249L165.675 226.82C165.894 227.584 165.675 228.198 165.017 228.662C164.359 229.126 163.715 229.112 163.084 228.621L157 223.996L150.915 228.621Z" fill="#E5E5E5"/>
</svg>
