<svg width="170" height="230" viewBox="0 0 170 230" fill="none" xmlns="http://www.w3.org/2000/svg">
<path d="M71.6666 79.9997C79.0266 79.9997 84.9999 74.0263 84.9999 66.6663V53.333H71.6666C64.3066 53.333 58.3333 59.3063 58.3333 66.6663C58.3333 74.0263 64.3066 79.9997 71.6666 79.9997Z" fill="#0ACF83"/>
<path d="M58.3333 40.0003C58.3333 32.6403 64.3066 26.667 71.6666 26.667H84.9999V53.3337H71.6666C64.3066 53.3337 58.3333 47.3603 58.3333 40.0003Z" fill="#A259FF"/>
<path d="M58.3333 13.3333C58.3333 5.97333 64.3066 0 71.6666 0H84.9999V26.6667H71.6666C64.3066 26.6667 58.3333 20.6933 58.3333 13.3333Z" fill="#F24E1E"/>
<path d="M84.9999 0H98.3332C105.693 0 111.667 5.97333 111.667 13.3333C111.667 20.6933 105.693 26.6667 98.3332 26.6667H84.9999V0Z" fill="#FF7262"/>
<path d="M111.667 40.0003C111.667 47.3603 105.693 53.3337 98.3333 53.3337C90.9733 53.3337 85 47.3603 85 40.0003C85 32.6403 90.9733 26.667 98.3333 26.667C105.693 26.667 111.667 32.6403 111.667 40.0003Z" fill="#1ABCFE"/>
<path d="M66.7349 120H64.65V110.006H70.3785V111.742H66.7349V114.319H70.1255V116.049H66.7349V120ZM74.5345 112.357V120H72.4495V112.357H74.5345ZM73.4954 109.363C73.8053 109.363 74.0719 109.436 74.2952 109.582C74.5185 109.723 74.6302 109.99 74.6302 110.382C74.6302 110.769 74.5185 111.038 74.2952 111.188C74.0719 111.334 73.8053 111.407 73.4954 111.407C73.1809 111.407 72.9121 111.334 72.6888 111.188C72.47 111.038 72.3606 110.769 72.3606 110.382C72.3606 109.99 72.47 109.723 72.6888 109.582C72.9121 109.436 73.1809 109.363 73.4954 109.363ZM79.2441 123.363C78.1777 123.363 77.362 123.176 76.7969 122.803C76.2363 122.434 75.9561 121.914 75.9561 121.244C75.9561 120.784 76.0996 120.399 76.3867 120.089C76.6738 119.779 77.0954 119.558 77.6514 119.426C77.4372 119.335 77.2503 119.187 77.0908 118.981C76.9313 118.772 76.8516 118.551 76.8516 118.318C76.8516 118.027 76.9359 117.785 77.1045 117.594C77.2731 117.398 77.5169 117.206 77.8359 117.02C77.4349 116.846 77.1159 116.568 76.8789 116.186C76.6465 115.803 76.5303 115.352 76.5303 114.832C76.5303 114.276 76.651 113.804 76.8926 113.417C77.1387 113.025 77.4941 112.727 77.959 112.521C78.4284 112.316 78.998 112.214 79.668 112.214C79.8092 112.214 79.9733 112.223 80.1602 112.241C80.347 112.259 80.5179 112.28 80.6729 112.303C80.8324 112.326 80.9395 112.344 80.9941 112.357H83.6602V113.417L82.4639 113.725C82.5732 113.893 82.6553 114.073 82.71 114.265C82.7646 114.456 82.792 114.659 82.792 114.873C82.792 115.693 82.5049 116.334 81.9307 116.794C81.361 117.25 80.568 117.478 79.5518 117.478C79.3102 117.464 79.0824 117.446 78.8682 117.423C78.7633 117.505 78.6836 117.591 78.6289 117.683C78.5742 117.774 78.5469 117.869 78.5469 117.97C78.5469 118.07 78.5879 118.154 78.6699 118.223C78.7565 118.286 78.8841 118.337 79.0527 118.373C79.2259 118.405 79.4401 118.421 79.6953 118.421H80.9941C81.8327 118.421 82.4707 118.601 82.9082 118.961C83.3503 119.321 83.5713 119.85 83.5713 120.547C83.5713 121.44 83.1976 122.133 82.4502 122.625C81.7074 123.117 80.6387 123.363 79.2441 123.363ZM79.333 122.003C79.8298 122.003 80.2559 121.955 80.6113 121.859C80.9714 121.768 81.2471 121.636 81.4385 121.463C81.6299 121.294 81.7256 121.091 81.7256 120.854C81.7256 120.663 81.6686 120.51 81.5547 120.396C81.4453 120.287 81.2767 120.21 81.0488 120.164C80.8255 120.118 80.5384 120.096 80.1875 120.096H79.1074C78.8522 120.096 78.6221 120.137 78.417 120.219C78.2165 120.301 78.057 120.415 77.9385 120.561C77.82 120.711 77.7607 120.884 77.7607 121.08C77.7607 121.367 77.8975 121.593 78.1709 121.757C78.4489 121.921 78.8363 122.003 79.333 122.003ZM79.668 116.206C80.0599 116.206 80.347 116.085 80.5293 115.844C80.7116 115.602 80.8027 115.274 80.8027 114.859C80.8027 114.399 80.707 114.055 80.5156 113.827C80.3288 113.595 80.0462 113.479 79.668 113.479C79.2852 113.479 78.998 113.595 78.8066 113.827C78.6152 114.055 78.5195 114.399 78.5195 114.859C78.5195 115.274 78.613 115.602 78.7998 115.844C78.9912 116.085 79.2806 116.206 79.668 116.206ZM94.1804 112.214C95.0463 112.214 95.7002 112.437 96.1423 112.884C96.5889 113.326 96.8122 114.037 96.8122 115.017V120H94.7204V115.536C94.7204 114.989 94.627 114.577 94.4402 114.299C94.2533 114.021 93.9639 113.882 93.572 113.882C93.0206 113.882 92.6286 114.08 92.3962 114.477C92.1638 114.868 92.0476 115.431 92.0476 116.165V120H89.9626V115.536C89.9626 115.172 89.9216 114.866 89.8396 114.62C89.7575 114.374 89.6322 114.189 89.4636 114.066C89.295 113.943 89.0785 113.882 88.8142 113.882C88.4268 113.882 88.1215 113.98 87.8982 114.176C87.6794 114.367 87.5222 114.652 87.4265 115.03C87.3353 115.404 87.2898 115.862 87.2898 116.404V120H85.2048V112.357H86.7976L87.0779 113.335H87.1941C87.349 113.071 87.5427 112.856 87.7751 112.692C88.0121 112.528 88.2719 112.408 88.5544 112.33C88.837 112.253 89.1241 112.214 89.4157 112.214C89.9763 112.214 90.4502 112.305 90.8376 112.487C91.2295 112.67 91.5303 112.952 91.74 113.335H91.9245C92.1524 112.943 92.4737 112.658 92.8884 112.48C93.3077 112.303 93.7383 112.214 94.1804 112.214ZM102.37 112.2C103.395 112.2 104.181 112.424 104.728 112.87C105.275 113.317 105.548 113.996 105.548 114.907V120H104.092L103.689 118.961H103.634C103.415 119.234 103.192 119.458 102.964 119.631C102.736 119.804 102.474 119.932 102.178 120.014C101.882 120.096 101.522 120.137 101.098 120.137C100.647 120.137 100.241 120.05 99.8813 119.877C99.5258 119.704 99.2455 119.439 99.0405 119.084C98.8354 118.724 98.7328 118.268 98.7328 117.717C98.7328 116.906 99.0177 116.309 99.5873 115.926C100.157 115.538 101.011 115.324 102.151 115.283L103.477 115.242V114.907C103.477 114.506 103.372 114.212 103.163 114.025C102.953 113.839 102.661 113.745 102.288 113.745C101.918 113.745 101.556 113.798 101.201 113.902C100.845 114.007 100.49 114.139 100.134 114.299L99.4438 112.891C99.8494 112.676 100.303 112.508 100.804 112.385C101.31 112.262 101.832 112.2 102.37 112.2ZM103.477 116.459L102.67 116.486C101.996 116.505 101.526 116.625 101.262 116.849C101.002 117.072 100.872 117.366 100.872 117.73C100.872 118.049 100.966 118.277 101.153 118.414C101.34 118.546 101.583 118.612 101.884 118.612C102.331 118.612 102.707 118.48 103.012 118.216C103.322 117.951 103.477 117.576 103.477 117.088V116.459Z" fill="#828282"/>
<path d="M6.91471 229.621C6.28429 230.112 5.64017 230.126 4.98235 229.662C4.32452 229.198 4.10525 228.584 4.32452 227.82L6.66802 220.249L0.706493 216.033C0.0486696 215.569 -0.149774 214.955 0.111163 214.191C0.371003 213.427 0.898359 213.045 1.69323 213.045H9.05264L11.4372 205.187C11.5743 204.805 11.787 204.511 12.0753 204.306C12.3626 204.102 12.6707 204 12.9996 204C13.3285 204 13.6366 204.102 13.9238 204.306C14.2122 204.511 14.4249 204.805 14.5619 205.187L16.9465 213.045H24.3059C25.1008 213.045 25.6287 213.427 25.8896 214.191C26.1495 214.955 25.9505 215.569 25.2927 216.033L19.3311 220.249L21.6746 227.82C21.8939 228.584 21.6746 229.198 21.0168 229.662C20.359 230.126 19.7149 230.112 19.0844 229.621L12.9996 224.996L6.91471 229.621Z" fill="#070707"/>
<path d="M42.9147 229.621C42.2843 230.112 41.6402 230.126 40.9823 229.662C40.3245 229.198 40.1053 228.584 40.3245 227.82L42.668 220.249L36.7065 216.033C36.0487 215.569 35.8502 214.955 36.1112 214.191C36.371 213.427 36.8984 213.045 37.6932 213.045H45.0526L47.4372 205.187C47.5743 204.805 47.787 204.511 48.0753 204.306C48.3626 204.102 48.6707 204 48.9996 204C49.3285 204 49.6366 204.102 49.9238 204.306C50.2122 204.511 50.4249 204.805 50.5619 205.187L52.9465 213.045H60.3059C61.1008 213.045 61.6287 213.427 61.8896 214.191C62.1495 214.955 61.9505 215.569 61.2927 216.033L55.3311 220.249L57.6746 227.82C57.8939 228.584 57.6746 229.198 57.0168 229.662C56.359 230.126 55.7149 230.112 55.0844 229.621L48.9996 224.996L42.9147 229.621Z" fill="#070707"/>
<path d="M78.9147 229.621C78.2843 230.112 77.6402 230.126 76.9823 229.662C76.3245 229.198 76.1053 228.584 76.3245 227.82L78.668 220.249L72.7065 216.033C72.0487 215.569 71.8502 214.955 72.1112 214.191C72.371 213.427 72.8984 213.045 73.6932 213.045H81.0526L83.4372 205.187C83.5743 204.805 83.787 204.511 84.0753 204.306C84.3626 204.102 84.6707 204 84.9996 204C85.3285 204 85.6366 204.102 85.9238 204.306C86.2122 204.511 86.4249 204.805 86.5619 205.187L88.9465 213.045H96.3059C97.1008 213.045 97.6287 213.427 97.8896 214.191C98.1495 214.955 97.9505 215.569 97.2927 216.033L91.3311 220.249L93.6746 227.82C93.8939 228.584 93.6746 229.198 93.0168 229.662C92.359 230.126 91.7149 230.112 91.0844 229.621L84.9996 224.996L78.9147 229.621Z" fill="#070707"/>
<path d="M114.915 229.621C114.284 230.112 113.64 230.126 112.982 229.662C112.325 229.198 112.105 228.584 112.325 227.82L114.668 220.249L108.706 216.033C108.049 215.569 107.85 214.955 108.111 214.191C108.371 213.427 108.898 213.045 109.693 213.045H117.053L119.437 205.187C119.574 204.805 119.787 204.511 120.075 204.306C120.363 204.102 120.671 204 121 204C121.328 204 121.637 204.102 121.924 204.306C122.212 204.511 122.425 204.805 122.562 205.187L124.947 213.045H132.306C133.101 213.045 133.629 213.427 133.89 214.191C134.149 214.955 133.95 215.569 133.293 216.033L127.331 220.249L129.675 227.82C129.894 228.584 129.675 229.198 129.017 229.662C128.359 230.126 127.715 230.112 127.084 229.621L121 224.996L114.915 229.621Z" fill="#070707"/>
<path d="M150.915 229.621C150.284 230.112 149.64 230.126 148.982 229.662C148.325 229.198 148.105 228.584 148.325 227.82L150.668 220.249L144.706 216.033C144.049 215.569 143.85 214.955 144.111 214.191C144.371 213.427 144.898 213.045 145.693 213.045H153.053L155.437 205.187C155.574 204.805 155.787 204.511 156.075 204.306C156.363 204.102 156.671 204 157 204C157.328 204 157.637 204.102 157.924 204.306C158.212 204.511 158.425 204.805 158.562 205.187L160.947 213.045H168.306C169.101 213.045 169.629 213.427 169.89 214.191C170.149 214.955 169.95 215.569 169.293 216.033L163.331 220.249L165.675 227.82C165.894 228.584 165.675 229.198 165.017 229.662C164.359 230.126 163.715 230.112 163.084 229.621L157 224.996L150.915 229.621Z" fill="#070707"/>
</svg>
