<svg width="170" height="230" viewBox="0 0 170 230" fill="none" xmlns="http://www.w3.org/2000/svg">
<path d="M125 0H45V80H125V0Z" fill="#87BCF6"/>
<path d="M118.296 6.7041H51.7047V73.2953H118.296V6.7041Z" fill="#252653"/>
<path fill-rule="evenodd" clip-rule="evenodd" d="M104.312 31.4519C98.3885 28.4456 88.1895 29.9019 88.1895 37.7454C88.1895 43.5863 92.206 45.8853 97.1168 47.8149C104.095 50.556 97.3133 55.7364 88.7943 50.3791C88.7943 50.3791 88.4893 50.2283 88.3394 50.3791C88.1895 50.53 88.1895 50.6808 88.1895 50.8368C88.1895 50.9877 88.1895 56.4646 88.1895 56.4646C91.167 57.9989 93.3898 58.7791 96.8274 58.7427C107.915 58.6283 109.513 47.945 103.615 43.836C102.545 43.087 99.6808 41.5943 98.7762 41.2458C94.0876 39.4462 94.4857 36.8872 95.9744 35.5973C97.6183 34.1669 102.178 36.3306 104.095 37.5373C105.258 38.2603 105.45 37.3605 105.445 36.5699L105.429 32.8302C105.429 31.9408 105.124 31.868 104.312 31.4519ZM70.0711 40.7933V27.0933C70.0711 27.0256 70.3089 26.7916 70.3709 26.7916C76.1398 26.4951 79.4223 27.629 79.717 33.8288C80.053 40.9441 74.1238 41.095 70.0711 41.095V40.7933ZM63.1132 21.7672V58.5971H70.0711V46.7279C78.6211 47.3416 86.3337 44.2573 86.3337 34.3126C86.3337 30.3024 85.0931 26.2663 82.1517 23.8269C78.0421 20.4149 68.4376 21.1743 63.1132 21.7672Z" fill="#87BCF6"/>
<path d="M69.6539 120L68.9293 117.621H65.2857L64.5611 120H62.2779L65.8052 109.965H68.3961L71.9371 120H69.6539ZM68.4234 115.844L67.6988 113.52C67.6532 113.365 67.5917 113.166 67.5142 112.925C67.4413 112.679 67.3661 112.43 67.2886 112.18C67.2157 111.924 67.1565 111.703 67.1109 111.517C67.0653 111.703 67.0015 111.936 66.9195 112.214C66.842 112.487 66.7668 112.747 66.6939 112.993C66.621 113.239 66.5686 113.415 66.5367 113.52L65.8189 115.844H68.4234ZM75.7376 120.137C74.8854 120.137 74.1904 119.804 73.6526 119.139C73.1194 118.469 72.8528 117.487 72.8528 116.192C72.8528 114.884 73.124 113.896 73.6663 113.226C74.2086 112.551 74.9173 112.214 75.7923 112.214C76.1569 112.214 76.4781 112.264 76.7561 112.364C77.0341 112.465 77.2734 112.599 77.4739 112.768C77.679 112.936 77.8522 113.125 77.9934 113.335H78.0618C78.0345 113.189 78.0003 112.975 77.9593 112.692C77.9228 112.405 77.9046 112.111 77.9046 111.811V109.363H79.9964V120H78.3968L77.9934 119.009H77.9046C77.7724 119.218 77.6061 119.41 77.4055 119.583C77.2096 119.752 76.9749 119.886 76.7014 119.986C76.428 120.087 76.1067 120.137 75.7376 120.137ZM76.469 118.476C77.0387 118.476 77.4397 118.307 77.6721 117.97C77.9091 117.628 78.0345 117.115 78.0481 116.432V116.206C78.0481 115.463 77.9342 114.896 77.7063 114.504C77.4785 114.107 77.0546 113.909 76.4348 113.909C75.9746 113.909 75.6145 114.107 75.3548 114.504C75.095 114.9 74.9651 115.472 74.9651 116.22C74.9651 116.967 75.095 117.53 75.3548 117.908C75.6191 118.286 75.9905 118.476 76.469 118.476ZM89.4023 116.165C89.4023 116.803 89.3158 117.368 89.1426 117.86C88.974 118.353 88.7256 118.77 88.3975 119.111C88.0739 119.449 87.682 119.704 87.2217 119.877C86.766 120.05 86.251 120.137 85.6768 120.137C85.139 120.137 84.6445 120.05 84.1934 119.877C83.7467 119.704 83.3571 119.449 83.0244 119.111C82.6963 118.77 82.4411 118.353 82.2588 117.86C82.0811 117.368 81.9922 116.803 81.9922 116.165C81.9922 115.317 82.1426 114.6 82.4434 114.012C82.7441 113.424 83.1725 112.977 83.7285 112.672C84.2845 112.367 84.9476 112.214 85.7178 112.214C86.4333 112.214 87.0667 112.367 87.6182 112.672C88.1742 112.977 88.6094 113.424 88.9238 114.012C89.2428 114.6 89.4023 115.317 89.4023 116.165ZM84.1182 116.165C84.1182 116.666 84.1729 117.088 84.2822 117.43C84.3916 117.771 84.5625 118.029 84.7949 118.202C85.0273 118.375 85.3304 118.462 85.7041 118.462C86.0732 118.462 86.3717 118.375 86.5996 118.202C86.832 118.029 87.0007 117.771 87.1055 117.43C87.2148 117.088 87.2695 116.666 87.2695 116.165C87.2695 115.659 87.2148 115.24 87.1055 114.907C87.0007 114.57 86.832 114.317 86.5996 114.148C86.3672 113.98 86.0641 113.896 85.6904 113.896C85.139 113.896 84.738 114.085 84.4873 114.463C84.2412 114.841 84.1182 115.409 84.1182 116.165ZM93.49 109.363V111.838C93.49 112.125 93.4808 112.41 93.4626 112.692C93.4489 112.975 93.4307 113.194 93.4079 113.349H93.49C93.6905 113.034 93.9639 112.768 94.3103 112.549C94.6566 112.326 95.1055 112.214 95.657 112.214C96.5137 112.214 97.2087 112.549 97.7419 113.219C98.2751 113.889 98.5417 114.871 98.5417 116.165C98.5417 117.035 98.4187 117.767 98.1726 118.359C97.9265 118.947 97.5824 119.392 97.1404 119.692C96.6983 119.989 96.1856 120.137 95.6023 120.137C95.0417 120.137 94.5997 120.036 94.2761 119.836C93.9525 119.635 93.6905 119.41 93.49 119.159H93.3464L92.9978 120H91.405V109.363H93.49ZM94.987 113.882C94.6224 113.882 94.3331 113.957 94.1189 114.107C93.9047 114.258 93.7474 114.483 93.6472 114.784C93.5515 115.085 93.4991 115.465 93.49 115.926V116.151C93.49 116.894 93.5993 117.464 93.8181 117.86C94.0368 118.252 94.4356 118.448 95.0144 118.448C95.4428 118.448 95.7823 118.25 96.0329 117.854C96.2881 117.457 96.4157 116.885 96.4157 116.138C96.4157 115.39 96.2881 114.827 96.0329 114.449C95.7777 114.071 95.4291 113.882 94.987 113.882ZM103.696 112.214C104.402 112.214 105.011 112.351 105.521 112.624C106.031 112.893 106.426 113.285 106.704 113.8C106.982 114.315 107.121 114.944 107.121 115.687V116.698H102.192C102.215 117.286 102.39 117.749 102.718 118.086C103.051 118.419 103.511 118.585 104.099 118.585C104.587 118.585 105.033 118.535 105.439 118.435C105.845 118.334 106.261 118.184 106.69 117.983V119.597C106.312 119.784 105.915 119.92 105.5 120.007C105.09 120.093 104.591 120.137 104.003 120.137C103.238 120.137 102.559 119.995 101.966 119.713C101.378 119.43 100.916 119 100.579 118.421C100.246 117.842 100.08 117.113 100.08 116.233C100.08 115.34 100.23 114.597 100.531 114.005C100.836 113.408 101.26 112.961 101.802 112.665C102.345 112.364 102.976 112.214 103.696 112.214ZM103.709 113.697C103.304 113.697 102.967 113.827 102.698 114.087C102.433 114.347 102.281 114.755 102.24 115.311H105.165C105.161 115.001 105.104 114.725 104.995 114.483C104.89 114.242 104.73 114.05 104.516 113.909C104.306 113.768 104.038 113.697 103.709 113.697ZM50.7804 129.006C52.0701 129.006 53.0112 129.284 53.6036 129.84C54.1961 130.391 54.4923 131.152 54.4923 132.123C54.4923 132.561 54.4262 132.98 54.2941 133.381C54.1619 133.777 53.9454 134.131 53.6446 134.44C53.3484 134.75 52.9519 134.996 52.4552 135.179C51.9585 135.356 51.3455 135.445 50.6163 135.445H49.7071V139H47.588V129.006H50.7804ZM50.671 130.742H49.7071V133.709H50.4044C50.8009 133.709 51.145 133.657 51.4366 133.552C51.7283 133.447 51.9539 133.283 52.1134 133.06C52.2729 132.836 52.3527 132.549 52.3527 132.198C52.3527 131.706 52.2159 131.341 51.9425 131.104C51.6691 130.863 51.2452 130.742 50.671 130.742ZM58.5799 128.363V130.53C58.5799 130.909 58.5663 131.269 58.5389 131.61C58.5161 131.952 58.4979 132.194 58.4842 132.335H58.5936C58.7577 132.071 58.9513 131.856 59.1746 131.692C59.4025 131.528 59.6532 131.408 59.9266 131.33C60.2 131.253 60.494 131.214 60.8084 131.214C61.3599 131.214 61.8407 131.312 62.2508 131.508C62.661 131.699 62.98 132.002 63.2079 132.417C63.4357 132.827 63.5496 133.36 63.5496 134.017V139H61.4647V134.536C61.4647 133.989 61.3644 133.577 61.1639 133.299C60.9634 133.021 60.6535 132.882 60.2342 132.882C59.8149 132.882 59.4845 132.98 59.243 133.176C59.0015 133.367 58.8306 133.652 58.7303 134.03C58.6301 134.404 58.5799 134.862 58.5799 135.404V139H56.495V128.363H58.5799ZM72.9214 135.165C72.9214 135.803 72.8349 136.368 72.6617 136.86C72.4931 137.353 72.2447 137.77 71.9166 138.111C71.593 138.449 71.2011 138.704 70.7408 138.877C70.2851 139.05 69.7701 139.137 69.1959 139.137C68.6581 139.137 68.1636 139.05 67.7125 138.877C67.2658 138.704 66.8762 138.449 66.5435 138.111C66.2154 137.77 65.9602 137.353 65.7779 136.86C65.6002 136.368 65.5113 135.803 65.5113 135.165C65.5113 134.317 65.6617 133.6 65.9625 133.012C66.2632 132.424 66.6916 131.977 67.2476 131.672C67.8036 131.367 68.4667 131.214 69.2369 131.214C69.9524 131.214 70.5858 131.367 71.1373 131.672C71.6933 131.977 72.1285 132.424 72.4429 133.012C72.7619 133.6 72.9214 134.317 72.9214 135.165ZM67.6373 135.165C67.6373 135.666 67.692 136.088 67.8013 136.43C67.9107 136.771 68.0816 137.029 68.314 137.202C68.5464 137.375 68.8495 137.462 69.2232 137.462C69.5923 137.462 69.8908 137.375 70.1187 137.202C70.3511 137.029 70.5198 136.771 70.6246 136.43C70.7339 136.088 70.7886 135.666 70.7886 135.165C70.7886 134.659 70.7339 134.24 70.6246 133.907C70.5198 133.57 70.3511 133.317 70.1187 133.148C69.8863 132.98 69.5832 132.896 69.2095 132.896C68.6581 132.896 68.2571 133.085 68.0064 133.463C67.7603 133.841 67.6373 134.409 67.6373 135.165ZM78.1438 137.476C78.3717 137.476 78.5927 137.453 78.8069 137.407C79.0257 137.362 79.2421 137.305 79.4563 137.236V138.788C79.233 138.888 78.955 138.97 78.6223 139.034C78.2942 139.103 77.9342 139.137 77.5423 139.137C77.0865 139.137 76.6764 139.064 76.3118 138.918C75.9518 138.768 75.6669 138.51 75.4573 138.146C75.2522 137.776 75.1497 137.264 75.1497 136.607V132.923H74.1516V132.041L75.3001 131.344L75.9016 129.73H77.2346V131.357H79.3743V132.923H77.2346V136.607C77.2346 136.899 77.3167 137.118 77.4807 137.264C77.6494 137.405 77.8704 137.476 78.1438 137.476ZM88.2334 135.165C88.2334 135.803 88.1468 136.368 87.9736 136.86C87.805 137.353 87.5566 137.77 87.2285 138.111C86.9049 138.449 86.513 138.704 86.0527 138.877C85.597 139.05 85.082 139.137 84.5078 139.137C83.9701 139.137 83.4756 139.05 83.0244 138.877C82.5778 138.704 82.1882 138.449 81.8555 138.111C81.5273 137.77 81.2721 137.353 81.0898 136.86C80.9121 136.368 80.8232 135.803 80.8232 135.165C80.8232 134.317 80.9736 133.6 81.2744 133.012C81.5752 132.424 82.0036 131.977 82.5596 131.672C83.1156 131.367 83.7786 131.214 84.5488 131.214C85.2643 131.214 85.8978 131.367 86.4492 131.672C87.0052 131.977 87.4404 132.424 87.7549 133.012C88.0739 133.6 88.2334 134.317 88.2334 135.165ZM82.9492 135.165C82.9492 135.666 83.0039 136.088 83.1133 136.43C83.2227 136.771 83.3936 137.029 83.626 137.202C83.8584 137.375 84.1615 137.462 84.5352 137.462C84.9043 137.462 85.2028 137.375 85.4307 137.202C85.6631 137.029 85.8317 136.771 85.9365 136.43C86.0459 136.088 86.1006 135.666 86.1006 135.165C86.1006 134.659 86.0459 134.24 85.9365 133.907C85.8317 133.57 85.6631 133.317 85.4307 133.148C85.1982 132.98 84.8952 132.896 84.5215 132.896C83.9701 132.896 83.569 133.085 83.3184 133.463C83.0723 133.841 82.9492 134.409 82.9492 135.165ZM95.5681 136.73C95.5681 137.25 95.445 137.69 95.1989 138.05C94.9574 138.405 94.5951 138.676 94.112 138.863C93.629 139.046 93.0274 139.137 92.3073 139.137C91.7741 139.137 91.3161 139.103 90.9333 139.034C90.5551 138.966 90.1723 138.852 89.7849 138.692V136.97C90.1996 137.157 90.6439 137.312 91.1179 137.435C91.5964 137.553 92.0157 137.612 92.3757 137.612C92.7813 137.612 93.0707 137.553 93.2439 137.435C93.4216 137.312 93.5105 137.152 93.5105 136.956C93.5105 136.828 93.474 136.715 93.4011 136.614C93.3327 136.509 93.1823 136.393 92.9499 136.266C92.7175 136.133 92.3529 135.963 91.8562 135.753C91.3777 135.552 90.9835 135.35 90.6736 135.145C90.3682 134.939 90.1404 134.698 89.99 134.42C89.8441 134.137 89.7712 133.78 89.7712 133.347C89.7712 132.64 90.0447 132.109 90.5915 131.754C91.143 131.394 91.879 131.214 92.7995 131.214C93.2735 131.214 93.7247 131.262 94.153 131.357C94.586 131.453 95.0303 131.606 95.4861 131.815L94.8572 133.319C94.4789 133.155 94.1211 133.021 93.7839 132.916C93.4512 132.811 93.1117 132.759 92.7654 132.759C92.46 132.759 92.2299 132.8 92.0749 132.882C91.92 132.964 91.8425 133.089 91.8425 133.258C91.8425 133.381 91.8812 133.49 91.9587 133.586C92.0407 133.682 92.1957 133.789 92.4236 133.907C92.656 134.021 92.9955 134.169 93.4421 134.352C93.8751 134.529 94.251 134.716 94.57 134.912C94.8891 135.104 95.1351 135.343 95.3083 135.63C95.4815 135.912 95.5681 136.279 95.5681 136.73ZM99.56 128.363V130.53C99.56 130.909 99.5463 131.269 99.519 131.61C99.4962 131.952 99.478 132.194 99.4643 132.335H99.5737C99.7377 132.071 99.9314 131.856 100.155 131.692C100.383 131.528 100.633 131.408 100.907 131.33C101.18 131.253 101.474 131.214 101.789 131.214C102.34 131.214 102.821 131.312 103.231 131.508C103.641 131.699 103.96 132.002 104.188 132.417C104.416 132.827 104.53 133.36 104.53 134.017V139H102.445V134.536C102.445 133.989 102.345 133.577 102.144 133.299C101.943 133.021 101.634 132.882 101.214 132.882C100.795 132.882 100.465 132.98 100.223 133.176C99.9816 133.367 99.8107 133.652 99.7104 134.03C99.6101 134.404 99.56 134.862 99.56 135.404V139H97.475V128.363H99.56ZM113.902 135.165C113.902 135.803 113.815 136.368 113.642 136.86C113.473 137.353 113.225 137.77 112.897 138.111C112.573 138.449 112.181 138.704 111.721 138.877C111.265 139.05 110.75 139.137 110.176 139.137C109.638 139.137 109.144 139.05 108.693 138.877C108.246 138.704 107.856 138.449 107.524 138.111C107.195 137.77 106.94 137.353 106.758 136.86C106.58 136.368 106.491 135.803 106.491 135.165C106.491 134.317 106.642 133.6 106.943 133.012C107.243 132.424 107.672 131.977 108.228 131.672C108.784 131.367 109.447 131.214 110.217 131.214C110.932 131.214 111.566 131.367 112.117 131.672C112.673 131.977 113.109 132.424 113.423 133.012C113.742 133.6 113.902 134.317 113.902 135.165ZM108.617 135.165C108.617 135.666 108.672 136.088 108.781 136.43C108.891 136.771 109.062 137.029 109.294 137.202C109.527 137.375 109.83 137.462 110.203 137.462C110.572 137.462 110.871 137.375 111.099 137.202C111.331 137.029 111.5 136.771 111.605 136.43C111.714 136.088 111.769 135.666 111.769 135.165C111.769 134.659 111.714 134.24 111.605 133.907C111.5 133.57 111.331 133.317 111.099 133.148C110.866 132.98 110.563 132.896 110.19 132.896C109.638 132.896 109.237 133.085 108.986 133.463C108.74 133.841 108.617 134.409 108.617 135.165ZM120.156 131.214C121.017 131.214 121.712 131.549 122.241 132.219C122.774 132.889 123.041 133.871 123.041 135.165C123.041 136.031 122.916 136.76 122.665 137.353C122.414 137.94 122.068 138.385 121.626 138.686C121.184 138.986 120.676 139.137 120.101 139.137C119.732 139.137 119.416 139.091 119.151 139C118.887 138.904 118.661 138.784 118.474 138.638C118.288 138.487 118.126 138.328 117.989 138.159H117.88C117.916 138.341 117.944 138.528 117.962 138.72C117.98 138.911 117.989 139.098 117.989 139.28V142.363H115.904V131.357H117.599L117.893 132.349H117.989C118.126 132.144 118.292 131.954 118.488 131.781C118.684 131.608 118.919 131.471 119.192 131.371C119.47 131.266 119.792 131.214 120.156 131.214ZM119.486 132.882C119.122 132.882 118.832 132.957 118.618 133.107C118.404 133.258 118.247 133.483 118.146 133.784C118.051 134.085 117.998 134.465 117.989 134.926V135.151C117.989 135.644 118.035 136.061 118.126 136.402C118.222 136.744 118.379 137.004 118.598 137.182C118.821 137.359 119.126 137.448 119.514 137.448C119.833 137.448 120.095 137.359 120.3 137.182C120.505 137.004 120.657 136.744 120.758 136.402C120.863 136.056 120.915 135.634 120.915 135.138C120.915 134.39 120.799 133.827 120.566 133.449C120.334 133.071 119.974 132.882 119.486 132.882Z" fill="#828282"/>
<path d="M6.91471 228.621C6.28429 229.112 5.64017 229.126 4.98235 228.662C4.32453 228.198 4.10525 227.584 4.32452 226.82L6.66802 219.249L0.706494 215.033C0.0486696 214.569 -0.149774 213.955 0.111163 213.191C0.371003 212.427 0.898359 212.045 1.69323 212.045H9.05263L11.4372 204.187C11.5743 203.805 11.787 203.511 12.0753 203.306C12.3626 203.102 12.6707 203 12.9996 203C13.3285 203 13.6366 203.102 13.9238 203.306C14.2122 203.511 14.4249 203.805 14.5619 204.187L16.9465 212.045H24.3059C25.1008 212.045 25.6287 212.427 25.8896 213.191C26.1495 213.955 25.9505 214.569 25.2927 215.033L19.3311 219.249L21.6746 226.82C21.8939 227.584 21.6746 228.198 21.0168 228.662C20.359 229.126 19.7149 229.112 19.0844 228.621L12.9996 223.996L6.91471 228.621Z" fill="#070707"/>
<path d="M42.9147 228.621C42.2843 229.112 41.6402 229.126 40.9823 228.662C40.3245 228.198 40.1053 227.584 40.3245 226.82L42.668 219.249L36.7065 215.033C36.0487 214.569 35.8502 213.955 36.1112 213.191C36.371 212.427 36.8984 212.045 37.6932 212.045H45.0526L47.4372 204.187C47.5743 203.805 47.787 203.511 48.0753 203.306C48.3626 203.102 48.6707 203 48.9996 203C49.3285 203 49.6366 203.102 49.9238 203.306C50.2122 203.511 50.4249 203.805 50.5619 204.187L52.9465 212.045H60.3059C61.1008 212.045 61.6287 212.427 61.8896 213.191C62.1495 213.955 61.9505 214.569 61.2927 215.033L55.3311 219.249L57.6746 226.82C57.8939 227.584 57.6746 228.198 57.0168 228.662C56.359 229.126 55.7149 229.112 55.0844 228.621L48.9996 223.996L42.9147 228.621Z" fill="#070707"/>
<path d="M78.9147 228.621C78.2843 229.112 77.6402 229.126 76.9823 228.662C76.3245 228.198 76.1053 227.584 76.3245 226.82L78.668 219.249L72.7065 215.033C72.0487 214.569 71.8502 213.955 72.1112 213.191C72.371 212.427 72.8984 212.045 73.6932 212.045H81.0526L83.4372 204.187C83.5743 203.805 83.787 203.511 84.0753 203.306C84.3626 203.102 84.6707 203 84.9996 203C85.3285 203 85.6366 203.102 85.9238 203.306C86.2122 203.511 86.4249 203.805 86.5619 204.187L88.9465 212.045H96.3059C97.1008 212.045 97.6287 212.427 97.8896 213.191C98.1495 213.955 97.9505 214.569 97.2927 215.033L91.3311 219.249L93.6746 226.82C93.8939 227.584 93.6746 228.198 93.0168 228.662C92.359 229.126 91.7149 229.112 91.0844 228.621L84.9996 223.996L78.9147 228.621Z" fill="#E5E5E5"/>
<path d="M114.915 228.621C114.284 229.112 113.64 229.126 112.982 228.662C112.325 228.198 112.105 227.584 112.325 226.82L114.668 219.249L108.706 215.033C108.049 214.569 107.85 213.955 108.111 213.191C108.371 212.427 108.898 212.045 109.693 212.045H117.053L119.437 204.187C119.574 203.805 119.787 203.511 120.075 203.306C120.363 203.102 120.671 203 121 203C121.328 203 121.637 203.102 121.924 203.306C122.212 203.511 122.425 203.805 122.562 204.187L124.947 212.045H132.306C133.101 212.045 133.629 212.427 133.89 213.191C134.149 213.955 133.95 214.569 133.293 215.033L127.331 219.249L129.675 226.82C129.894 227.584 129.675 228.198 129.017 228.662C128.359 229.126 127.715 229.112 127.084 228.621L121 223.996L114.915 228.621Z" fill="#E5E5E5"/>
<path d="M150.915 228.621C150.284 229.112 149.64 229.126 148.982 228.662C148.325 228.198 148.105 227.584 148.325 226.82L150.668 219.249L144.706 215.033C144.049 214.569 143.85 213.955 144.111 213.191C144.371 212.427 144.898 212.045 145.693 212.045H153.053L155.437 204.187C155.574 203.805 155.787 203.511 156.075 203.306C156.363 203.102 156.671 203 157 203C157.328 203 157.637 203.102 157.924 203.306C158.212 203.511 158.425 203.805 158.562 204.187L160.947 212.045H168.306C169.101 212.045 169.629 212.427 169.89 213.191C170.149 213.955 169.95 214.569 169.293 215.033L163.331 219.249L165.675 226.82C165.894 227.584 165.675 228.198 165.017 228.662C164.359 229.126 163.715 229.112 163.084 228.621L157 223.996L150.915 228.621Z" fill="#E5E5E5"/>
</svg>
